<?xml version="1.0" encoding="utf-8"?>
<svg xmlns="http://www.w3.org/2000/svg" xmlns:xlink="http://www.w3.org/1999/xlink" width="600" height="400" viewBox="0 0 2400 1600">
<defs>
  <clipPath id="clip640">
    <rect x="0" y="0" width="2400" height="1600"/>
  </clipPath>
</defs>
<path clip-path="url(#clip640)" d="
M0 1600 L2400 1600 L2400 0 L0 0  Z
  " fill="#ffffff" fill-rule="evenodd" fill-opacity="1"/>
<defs>
  <clipPath id="clip641">
    <rect x="480" y="0" width="1681" height="1600"/>
  </clipPath>
</defs>
<path clip-path="url(#clip640)" d="
M110.512 1398.96 L2352.76 1398.96 L2352.76 47.2441 L110.512 47.2441  Z
  " fill="#eaeaea" fill-rule="evenodd" fill-opacity="1"/>
<defs>
  <clipPath id="clip642">
    <rect x="110" y="47" width="2243" height="1353"/>
  </clipPath>
</defs>
<polyline clip-path="url(#clip642)" style="stroke:#ffffff; stroke-linecap:round; stroke-linejoin:round; stroke-width:2; stroke-opacity:1; fill:none" points="
  438.387,1398.96 438.387,47.2441 
  "/>
<polyline clip-path="url(#clip642)" style="stroke:#ffffff; stroke-linecap:round; stroke-linejoin:round; stroke-width:2; stroke-opacity:1; fill:none" points="
  967.218,1398.96 967.218,47.2441 
  "/>
<polyline clip-path="url(#clip642)" style="stroke:#ffffff; stroke-linecap:round; stroke-linejoin:round; stroke-width:2; stroke-opacity:1; fill:none" points="
  1496.05,1398.96 1496.05,47.2441 
  "/>
<polyline clip-path="url(#clip642)" style="stroke:#ffffff; stroke-linecap:round; stroke-linejoin:round; stroke-width:2; stroke-opacity:1; fill:none" points="
  2024.88,1398.96 2024.88,47.2441 
  "/>
<polyline clip-path="url(#clip640)" style="stroke:#ffffff; stroke-linecap:round; stroke-linejoin:round; stroke-width:4; stroke-opacity:1; fill:none" points="
  110.512,1398.96 2352.76,1398.96 
  "/>
<polyline clip-path="url(#clip640)" style="stroke:#333333; stroke-linecap:round; stroke-linejoin:round; stroke-width:4; stroke-opacity:1; fill:none" points="
  173.972,1398.96 173.972,1417.86 
  "/>
<polyline clip-path="url(#clip640)" style="stroke:#333333; stroke-linecap:round; stroke-linejoin:round; stroke-width:4; stroke-opacity:1; fill:none" points="
  702.803,1398.96 702.803,1417.86 
  "/>
<polyline clip-path="url(#clip640)" style="stroke:#333333; stroke-linecap:round; stroke-linejoin:round; stroke-width:4; stroke-opacity:1; fill:none" points="
  1231.63,1398.96 1231.63,1417.86 
  "/>
<polyline clip-path="url(#clip640)" style="stroke:#333333; stroke-linecap:round; stroke-linejoin:round; stroke-width:4; stroke-opacity:1; fill:none" points="
  1760.47,1398.96 1760.47,1417.86 
  "/>
<polyline clip-path="url(#clip640)" style="stroke:#333333; stroke-linecap:round; stroke-linejoin:round; stroke-width:4; stroke-opacity:1; fill:none" points="
  438.387,1398.96 438.387,1408.41 
  "/>
<polyline clip-path="url(#clip640)" style="stroke:#333333; stroke-linecap:round; stroke-linejoin:round; stroke-width:4; stroke-opacity:1; fill:none" points="
  967.218,1398.96 967.218,1408.41 
  "/>
<polyline clip-path="url(#clip640)" style="stroke:#333333; stroke-linecap:round; stroke-linejoin:round; stroke-width:4; stroke-opacity:1; fill:none" points="
  1496.05,1398.96 1496.05,1408.41 
  "/>
<polyline clip-path="url(#clip640)" style="stroke:#333333; stroke-linecap:round; stroke-linejoin:round; stroke-width:4; stroke-opacity:1; fill:none" points="
  2024.88,1398.96 2024.88,1408.41 
  "/>
<path clip-path="url(#clip640)" d="M162.097 1453.64 Q162.097 1446.59 163.877 1442.75 Q166.36 1437.03 172.215 1437.03 Q173.457 1437.03 174.745 1437.38 Q176.057 1437.71 177.696 1439 Q179.359 1440.29 180.366 1442.4 Q182.287 1446.47 182.287 1453.64 Q182.287 1460.64 180.507 1464.46 Q177.907 1470.03 172.169 1470.03 Q170.014 1470.03 167.812 1468.93 Q165.634 1467.83 164.252 1465.19 Q162.097 1461.23 162.097 1453.64 M166.079 1453.05 Q166.079 1460.29 166.594 1463.17 Q167.18 1466.29 168.772 1467.64 Q170.388 1468.98 172.169 1468.98 Q174.089 1468.98 175.682 1467.55 Q177.298 1466.1 177.79 1462.98 Q178.329 1459.92 178.305 1453.05 Q178.305 1446.38 177.837 1443.71 Q177.204 1440.59 175.518 1439.35 Q173.855 1438.09 172.169 1438.09 Q171.536 1438.09 170.857 1438.27 Q170.201 1438.46 169.241 1439 Q168.28 1439.54 167.531 1440.87 Q166.805 1442.21 166.453 1444.22 Q166.079 1446.82 166.079 1453.05 Z" fill="#4c4c4c" fill-rule="evenodd" fill-opacity="1" /><path clip-path="url(#clip640)" d="M642.425 1433.87 L642.425 1432.37 Q648.187 1432.37 651.162 1429.3 Q651.982 1429.3 652.122 1429.49 Q652.263 1429.67 652.263 1430.54 L652.263 1457.45 Q652.263 1458.88 652.965 1459.33 Q653.668 1459.77 656.736 1459.77 L658.259 1459.77 L658.259 1461.25 Q656.573 1461.11 650.483 1461.11 Q644.393 1461.11 642.73 1461.25 L642.73 1459.77 L644.252 1459.77 Q647.274 1459.77 648 1459.35 Q648.726 1458.91 648.726 1457.45 L648.726 1432.6 Q646.22 1433.87 642.425 1433.87 Z" fill="#4c4c4c" fill-rule="evenodd" fill-opacity="1" /><path clip-path="url(#clip640)" d="
M640.425 1474.05 L664.514 1474.05 L664.514 1471.49 L640.425 1471.49  Z
  " fill="#4c4c4c" fill-rule="evenodd" fill-opacity="1"/>
<path clip-path="url(#clip640)" d="M640.425 1515.93 Q640.425 1515.06 640.496 1514.8 Q640.589 1514.55 640.964 1514.15 L650.169 1503.89 Q655.205 1498.22 655.205 1493.28 Q655.205 1490.07 653.518 1487.77 Q651.856 1485.48 648.787 1485.48 Q646.679 1485.48 644.899 1486.77 Q643.119 1488.06 642.299 1490.35 Q642.44 1490.3 642.932 1490.3 Q644.126 1490.3 644.782 1491.05 Q645.461 1491.8 645.461 1492.81 Q645.461 1494.1 644.618 1494.73 Q643.798 1495.34 642.978 1495.34 Q642.65 1495.34 642.205 1495.27 Q641.784 1495.2 641.105 1494.54 Q640.425 1493.86 640.425 1492.67 Q640.425 1489.32 642.955 1486.65 Q645.508 1483.98 649.396 1483.98 Q653.8 1483.98 656.681 1486.6 Q659.585 1489.2 659.585 1493.28 Q659.585 1494.71 659.14 1496.02 Q658.718 1497.31 658.133 1498.31 Q657.571 1499.32 656.025 1500.94 Q654.479 1502.55 653.237 1503.7 Q651.996 1504.85 649.209 1507.29 L644.126 1512.23 L652.769 1512.23 Q656.985 1512.23 657.313 1511.85 Q657.781 1511.17 658.367 1507.59 L659.585 1507.59 L658.226 1515.93 L640.425 1515.93 Z" fill="#4c4c4c" fill-rule="evenodd" fill-opacity="1" /><path clip-path="url(#clip640)" d="M714.606 1471.98 Q714.887 1472.26 714.887 1472.66 Q714.887 1473.06 714.606 1473.34 Q714.325 1473.62 713.927 1473.62 L683.899 1473.62 Q683.501 1473.62 683.22 1473.34 Q682.939 1473.06 682.939 1472.66 Q682.939 1472.26 683.22 1471.98 Q683.501 1471.7 683.899 1471.7 L713.927 1471.7 Q714.325 1471.7 714.606 1471.98 Z" fill="#4c4c4c" fill-rule="evenodd" fill-opacity="1" /><path clip-path="url(#clip640)" d="M763.091 1447.18 Q763.091 1450.55 761.381 1453.85 Q759.695 1457.13 756.978 1459.19 Q754.284 1461.26 751.52 1461.26 Q748.827 1461.26 747.117 1459.19 Q745.431 1457.11 745.431 1453.71 Q745.431 1452.52 745.571 1451.68 Q745.712 1450.83 746.203 1448.86 L750.138 1433.22 Q750.818 1430.29 750.818 1430.27 Q750.818 1429.99 750.701 1429.85 Q750.607 1429.68 750.045 1429.56 Q749.483 1429.45 748.405 1429.45 Q747.96 1429.45 747.749 1429.42 Q747.562 1429.4 747.398 1429.28 Q747.257 1429.14 747.257 1428.86 Q747.257 1428.46 747.421 1428.25 Q747.609 1428.02 747.749 1427.97 Q747.89 1427.92 748.171 1427.9 Q748.569 1427.88 749.904 1427.76 Q751.239 1427.62 752.387 1427.53 Q753.535 1427.43 754.027 1427.43 Q754.308 1427.43 754.448 1427.57 Q754.612 1427.69 754.612 1427.83 L754.636 1427.95 L751.099 1442.4 Q753.886 1439.52 756.72 1439.52 Q759.554 1439.52 761.311 1441.7 Q763.091 1443.88 763.091 1447.18 M759.625 1445.07 Q759.625 1442.84 758.781 1441.72 Q757.962 1440.57 756.603 1440.57 Q755.455 1440.57 753.956 1441.44 Q752.457 1442.31 750.865 1444.41 Q750.56 1444.81 750.443 1445.05 Q750.349 1445.28 750.138 1446.08 L749.084 1450.5 Q748.311 1453.53 748.311 1455.35 Q748.311 1457.84 749.225 1459.01 Q750.138 1460.18 751.52 1460.18 Q752.973 1460.18 754.495 1458.89 Q756.017 1457.6 757.189 1455.26 Q757.915 1453.71 758.758 1450.39 Q759.625 1447.04 759.625 1445.07 Z" fill="#4c4c4c" fill-rule="evenodd" fill-opacity="1" /><path clip-path="url(#clip640)" d="
M743.431 1474.05 L770.301 1474.05 L770.301 1471.49 L743.431 1471.49  Z
  " fill="#4c4c4c" fill-rule="evenodd" fill-opacity="1"/>
<path clip-path="url(#clip640)" d="M765.401 1498.41 Q764.768 1501.43 763.949 1503.16 Q762.637 1505.81 760.412 1505.81 Q758.725 1505.81 757.531 1504.78 Q756.336 1503.75 756.055 1502.2 Q752.987 1505.81 749.801 1505.81 Q746.991 1505.81 745.211 1503.68 Q743.431 1501.52 743.431 1498.13 Q743.431 1494.71 745.117 1491.43 Q746.827 1488.15 749.52 1486.11 Q752.214 1484.07 754.978 1484.07 Q757.906 1484.07 759.405 1487.14 Q759.522 1486.3 760.06 1485.67 Q760.599 1485.03 761.419 1485.03 Q762.051 1485.03 762.426 1485.39 Q762.801 1485.71 762.801 1486.32 Q762.801 1486.63 762.473 1487.96 L760.74 1494.66 L759.686 1498.99 Q759.288 1500.59 759.17 1501.17 Q759.077 1501.76 759.077 1502.53 Q759.077 1504.73 760.505 1504.73 Q761.208 1504.73 761.77 1504.29 Q762.332 1503.84 762.777 1502.91 Q763.222 1501.97 763.504 1501.1 Q763.785 1500.21 764.159 1498.81 Q764.276 1498.25 764.37 1498.1 Q764.487 1497.94 764.815 1497.94 Q765.401 1497.94 765.401 1498.41 M758.819 1489.34 Q758.819 1489.13 758.655 1488.55 Q758.491 1487.96 758.116 1487.14 Q757.742 1486.32 756.922 1485.74 Q756.125 1485.13 755.048 1485.13 Q753.596 1485.13 752.073 1486.37 Q750.574 1487.61 749.474 1489.72 Q748.63 1491.41 747.717 1494.94 Q746.827 1498.48 746.827 1500.24 Q746.827 1501.31 747.061 1502.27 Q747.319 1503.21 748.045 1503.98 Q748.771 1504.73 749.895 1504.73 Q752.636 1504.73 755.329 1501.34 Q755.844 1500.75 755.962 1500.52 Q756.102 1500.26 756.289 1499.56 L758.679 1490.16 Q758.819 1489.46 758.819 1489.34 Z" fill="#4c4c4c" fill-rule="evenodd" fill-opacity="1" /><path clip-path="url(#clip640)" d="M1224.15 1432.02 L1224.15 1430.52 Q1229.91 1430.52 1232.89 1427.46 Q1233.71 1427.46 1233.85 1427.64 Q1233.99 1427.83 1233.99 1428.7 L1233.99 1455.61 Q1233.99 1457.04 1234.69 1457.48 Q1235.39 1457.93 1238.46 1457.93 L1239.98 1457.93 L1239.98 1459.4 Q1238.3 1459.26 1232.21 1459.26 Q1226.12 1459.26 1224.45 1459.4 L1224.45 1457.93 L1225.98 1457.93 Q1229 1457.93 1229.72 1457.51 Q1230.45 1457.06 1230.45 1455.61 L1230.45 1430.76 Q1227.94 1432.02 1224.15 1432.02 Z" fill="#4c4c4c" fill-rule="evenodd" fill-opacity="1" /><path clip-path="url(#clip640)" d="
M1222.15 1472.2 L1246.24 1472.2 L1246.24 1469.64 L1222.15 1469.64  Z
  " fill="#4c4c4c" fill-rule="evenodd" fill-opacity="1"/>
<path clip-path="url(#clip640)" d="M1222.15 1514.08 Q1222.15 1513.22 1222.22 1512.96 Q1222.31 1512.7 1222.69 1512.3 L1231.89 1502.05 Q1236.93 1496.38 1236.93 1491.43 Q1236.93 1488.23 1235.24 1485.93 Q1233.58 1483.64 1230.51 1483.64 Q1228.4 1483.64 1226.62 1484.92 Q1224.84 1486.21 1224.02 1488.51 Q1224.16 1488.46 1224.66 1488.46 Q1225.85 1488.46 1226.51 1489.21 Q1227.19 1489.96 1227.19 1490.97 Q1227.19 1492.25 1226.34 1492.89 Q1225.52 1493.5 1224.7 1493.5 Q1224.37 1493.5 1223.93 1493.43 Q1223.51 1493.36 1222.83 1492.7 Q1222.15 1492.02 1222.15 1490.83 Q1222.15 1487.48 1224.68 1484.81 Q1227.23 1482.14 1231.12 1482.14 Q1235.52 1482.14 1238.4 1484.76 Q1241.31 1487.36 1241.31 1491.43 Q1241.31 1492.86 1240.86 1494.18 Q1240.44 1495.46 1239.86 1496.47 Q1239.29 1497.48 1237.75 1499.09 Q1236.2 1500.71 1234.96 1501.86 Q1233.72 1503.01 1230.93 1505.44 L1225.85 1510.38 L1234.49 1510.38 Q1238.71 1510.38 1239.04 1510.01 Q1239.51 1509.33 1240.09 1505.75 L1241.31 1505.75 L1239.95 1514.08 L1222.15 1514.08 Z" fill="#4c4c4c" fill-rule="evenodd" fill-opacity="1" /><path clip-path="url(#clip640)" d="M1700.09 1433.87 L1700.09 1432.37 Q1705.85 1432.37 1708.82 1429.3 Q1709.64 1429.3 1709.78 1429.49 Q1709.92 1429.67 1709.92 1430.54 L1709.92 1457.45 Q1709.92 1458.88 1710.63 1459.33 Q1711.33 1459.77 1714.4 1459.77 L1715.92 1459.77 L1715.92 1461.25 Q1714.23 1461.11 1708.14 1461.11 Q1702.05 1461.11 1700.39 1461.25 L1700.39 1459.77 L1701.91 1459.77 Q1704.94 1459.77 1705.66 1459.35 Q1706.39 1458.91 1706.39 1457.45 L1706.39 1432.6 Q1703.88 1433.87 1700.09 1433.87 Z" fill="#4c4c4c" fill-rule="evenodd" fill-opacity="1" /><path clip-path="url(#clip640)" d="
M1698.09 1474.05 L1722.18 1474.05 L1722.18 1471.49 L1698.09 1471.49  Z
  " fill="#4c4c4c" fill-rule="evenodd" fill-opacity="1"/>
<path clip-path="url(#clip640)" d="M1698.09 1515.93 Q1698.09 1515.06 1698.16 1514.8 Q1698.25 1514.55 1698.63 1514.15 L1707.83 1503.89 Q1712.87 1498.22 1712.87 1493.28 Q1712.87 1490.07 1711.18 1487.77 Q1709.52 1485.48 1706.45 1485.48 Q1704.34 1485.48 1702.56 1486.77 Q1700.78 1488.06 1699.96 1490.35 Q1700.1 1490.3 1700.59 1490.3 Q1701.79 1490.3 1702.44 1491.05 Q1703.12 1491.8 1703.12 1492.81 Q1703.12 1494.1 1702.28 1494.73 Q1701.46 1495.34 1700.64 1495.34 Q1700.31 1495.34 1699.87 1495.27 Q1699.45 1495.2 1698.77 1494.54 Q1698.09 1493.86 1698.09 1492.67 Q1698.09 1489.32 1700.62 1486.65 Q1703.17 1483.98 1707.06 1483.98 Q1711.46 1483.98 1714.34 1486.6 Q1717.25 1489.2 1717.25 1493.28 Q1717.25 1494.71 1716.8 1496.02 Q1716.38 1497.31 1715.79 1498.31 Q1715.23 1499.32 1713.69 1500.94 Q1712.14 1502.55 1710.9 1503.7 Q1709.66 1504.85 1706.87 1507.29 L1701.79 1512.23 L1710.43 1512.23 Q1714.65 1512.23 1714.98 1511.85 Q1715.44 1511.17 1716.03 1507.59 L1717.25 1507.59 L1715.89 1515.93 L1698.09 1515.93 Z" fill="#4c4c4c" fill-rule="evenodd" fill-opacity="1" /><path clip-path="url(#clip640)" d="M1741.7 1473.24 Q1740.6 1473.24 1740.6 1472.66 Q1740.6 1472.07 1741.75 1472.07 Q1741.89 1472.07 1742.12 1472.1 Q1742.38 1472.12 1742.43 1472.12 L1755.94 1472.12 L1755.94 1458.56 Q1755.94 1458.51 1755.92 1458.3 Q1755.9 1458.07 1755.9 1457.93 Q1755.9 1456.78 1756.46 1456.78 Q1757.04 1456.78 1757.04 1457.93 L1757.04 1472.12 L1770.58 1472.12 Q1770.63 1472.12 1770.86 1472.1 Q1771.1 1472.07 1771.24 1472.07 Q1772.34 1472.07 1772.34 1472.66 Q1772.36 1473.24 1771.19 1473.24 Q1771.05 1473.24 1770.84 1473.22 Q1770.63 1473.2 1770.58 1473.2 L1757.04 1473.2 L1757.04 1487.44 Q1757.04 1488.54 1756.46 1488.54 Q1755.9 1488.54 1755.9 1487.39 Q1755.9 1487.25 1755.92 1487.02 Q1755.94 1486.81 1755.94 1486.76 L1755.94 1473.2 L1742.43 1473.2 Q1742.38 1473.2 1742.1 1473.22 Q1741.84 1473.24 1741.7 1473.24 Z" fill="#4c4c4c" fill-rule="evenodd" fill-opacity="1" /><path clip-path="url(#clip640)" d="M1820.75 1447.18 Q1820.75 1450.55 1819.04 1453.85 Q1817.36 1457.13 1814.64 1459.19 Q1811.95 1461.26 1809.18 1461.26 Q1806.49 1461.26 1804.78 1459.19 Q1803.09 1457.11 1803.09 1453.71 Q1803.09 1452.52 1803.23 1451.68 Q1803.37 1450.83 1803.87 1448.86 L1807.8 1433.22 Q1808.48 1430.29 1808.48 1430.27 Q1808.48 1429.99 1808.36 1429.85 Q1808.27 1429.68 1807.71 1429.56 Q1807.14 1429.45 1806.07 1429.45 Q1805.62 1429.45 1805.41 1429.42 Q1805.22 1429.4 1805.06 1429.28 Q1804.92 1429.14 1804.92 1428.86 Q1804.92 1428.46 1805.08 1428.25 Q1805.27 1428.02 1805.41 1427.97 Q1805.55 1427.92 1805.83 1427.9 Q1806.23 1427.88 1807.57 1427.76 Q1808.9 1427.62 1810.05 1427.53 Q1811.2 1427.43 1811.69 1427.43 Q1811.97 1427.43 1812.11 1427.57 Q1812.27 1427.69 1812.27 1427.83 L1812.3 1427.95 L1808.76 1442.4 Q1811.55 1439.52 1814.38 1439.52 Q1817.22 1439.52 1818.97 1441.7 Q1820.75 1443.88 1820.75 1447.18 M1817.29 1445.07 Q1817.29 1442.84 1816.44 1441.72 Q1815.62 1440.57 1814.27 1440.57 Q1813.12 1440.57 1811.62 1441.44 Q1810.12 1442.31 1808.53 1444.41 Q1808.22 1444.81 1808.11 1445.05 Q1808.01 1445.28 1807.8 1446.08 L1806.75 1450.5 Q1805.97 1453.53 1805.97 1455.35 Q1805.97 1457.84 1806.89 1459.01 Q1807.8 1460.18 1809.18 1460.18 Q1810.63 1460.18 1812.16 1458.89 Q1813.68 1457.6 1814.85 1455.26 Q1815.58 1453.71 1816.42 1450.39 Q1817.29 1447.04 1817.29 1445.07 Z" fill="#4c4c4c" fill-rule="evenodd" fill-opacity="1" /><path clip-path="url(#clip640)" d="
M1801.09 1474.05 L1827.96 1474.05 L1827.96 1471.49 L1801.09 1471.49  Z
  " fill="#4c4c4c" fill-rule="evenodd" fill-opacity="1"/>
<path clip-path="url(#clip640)" d="M1823.06 1498.41 Q1822.43 1501.43 1821.61 1503.16 Q1820.3 1505.81 1818.07 1505.81 Q1816.39 1505.81 1815.19 1504.78 Q1814 1503.75 1813.72 1502.2 Q1810.65 1505.81 1807.46 1505.81 Q1804.65 1505.81 1802.87 1503.68 Q1801.09 1501.52 1801.09 1498.13 Q1801.09 1494.71 1802.78 1491.43 Q1804.49 1488.15 1807.18 1486.11 Q1809.88 1484.07 1812.64 1484.07 Q1815.57 1484.07 1817.07 1487.14 Q1817.18 1486.3 1817.72 1485.67 Q1818.26 1485.03 1819.08 1485.03 Q1819.71 1485.03 1820.09 1485.39 Q1820.46 1485.71 1820.46 1486.32 Q1820.46 1486.63 1820.14 1487.96 L1818.4 1494.66 L1817.35 1498.99 Q1816.95 1500.59 1816.83 1501.17 Q1816.74 1501.76 1816.74 1502.53 Q1816.74 1504.73 1818.17 1504.73 Q1818.87 1504.73 1819.43 1504.29 Q1819.99 1503.84 1820.44 1502.91 Q1820.88 1501.97 1821.17 1501.1 Q1821.45 1500.21 1821.82 1498.81 Q1821.94 1498.25 1822.03 1498.1 Q1822.15 1497.94 1822.48 1497.94 Q1823.06 1497.94 1823.06 1498.41 M1816.48 1489.34 Q1816.48 1489.13 1816.32 1488.55 Q1816.15 1487.96 1815.78 1487.14 Q1815.4 1486.32 1814.58 1485.74 Q1813.79 1485.13 1812.71 1485.13 Q1811.26 1485.13 1809.74 1486.37 Q1808.24 1487.61 1807.14 1489.72 Q1806.29 1491.41 1805.38 1494.94 Q1804.49 1498.48 1804.49 1500.24 Q1804.49 1501.31 1804.72 1502.27 Q1804.98 1503.21 1805.71 1503.98 Q1806.43 1504.73 1807.56 1504.73 Q1810.3 1504.73 1812.99 1501.34 Q1813.51 1500.75 1813.62 1500.52 Q1813.76 1500.26 1813.95 1499.56 L1816.34 1490.16 Q1816.48 1489.46 1816.48 1489.34 Z" fill="#4c4c4c" fill-rule="evenodd" fill-opacity="1" /><path clip-path="url(#clip640)" d="M1212.2 1543.18 Q1212.2 1544.98 1211.08 1546.01 Q1209.95 1547.01 1208.66 1547.01 Q1207.44 1547.01 1206.79 1546.3 Q1206.15 1545.59 1206.15 1544.69 Q1206.15 1543.47 1207.05 1542.4 Q1207.95 1541.34 1209.3 1541.12 Q1207.98 1540.28 1206.02 1540.28 Q1204.73 1540.28 1203.6 1540.96 Q1202.51 1541.63 1201.83 1542.5 Q1201.19 1543.37 1200.61 1544.63 Q1200.06 1545.85 1199.84 1546.59 Q1199.64 1547.3 1199.48 1548.07 L1197.23 1557.09 Q1196.13 1561.37 1196.13 1562.89 Q1196.13 1564.76 1197.03 1566.01 Q1197.94 1567.24 1199.74 1567.24 Q1200.45 1567.24 1201.25 1567.04 Q1202.06 1566.82 1203.09 1566.24 Q1204.15 1565.63 1205.08 1564.72 Q1206.05 1563.79 1206.99 1562.21 Q1207.92 1560.63 1208.53 1558.6 Q1208.72 1557.9 1209.37 1557.9 Q1210.17 1557.9 1210.17 1558.54 Q1210.17 1559.09 1209.72 1560.25 Q1209.3 1561.37 1208.37 1562.86 Q1207.47 1564.3 1206.28 1565.63 Q1205.08 1566.91 1203.31 1567.82 Q1201.54 1568.72 1199.61 1568.72 Q1196.84 1568.72 1195 1567.24 Q1193.17 1565.75 1192.49 1563.69 Q1192.33 1563.98 1192.11 1564.37 Q1191.88 1564.76 1191.2 1565.63 Q1190.56 1566.46 1189.82 1567.11 Q1189.08 1567.72 1187.92 1568.2 Q1186.79 1568.72 1185.57 1568.72 Q1184.02 1568.72 1182.64 1568.27 Q1181.28 1567.82 1180.32 1566.78 Q1179.35 1565.75 1179.35 1564.34 Q1179.35 1562.76 1180.42 1561.66 Q1181.51 1560.54 1182.99 1560.54 Q1183.93 1560.54 1184.67 1561.08 Q1185.44 1561.63 1185.44 1562.82 Q1185.44 1564.14 1184.54 1565.14 Q1183.64 1566.14 1182.35 1566.4 Q1183.67 1567.24 1185.63 1567.24 Q1187.76 1567.24 1189.43 1565.37 Q1191.11 1563.5 1191.91 1560.38 Q1193.91 1552.87 1194.68 1549.52 Q1195.46 1546.14 1195.46 1544.69 Q1195.46 1543.34 1195.1 1542.4 Q1194.75 1541.47 1194.13 1541.05 Q1193.56 1540.6 1193.01 1540.44 Q1192.49 1540.28 1191.91 1540.28 Q1190.95 1540.28 1189.85 1540.67 Q1188.79 1541.05 1187.5 1541.95 Q1186.24 1542.82 1185.05 1544.63 Q1183.86 1546.43 1183.06 1548.91 Q1182.9 1549.65 1182.19 1549.65 Q1181.41 1549.62 1181.41 1548.97 Q1181.41 1548.43 1181.83 1547.3 Q1182.28 1546.14 1183.18 1544.69 Q1184.12 1543.24 1185.31 1541.95 Q1186.53 1540.63 1188.31 1539.73 Q1190.11 1538.83 1192.04 1538.83 Q1192.91 1538.83 1193.75 1539.02 Q1194.62 1539.18 1195.65 1539.67 Q1196.71 1540.15 1197.65 1541.21 Q1198.58 1542.28 1199.16 1543.82 Q1199.55 1543.08 1200.06 1542.37 Q1200.61 1541.66 1201.45 1540.79 Q1202.32 1539.89 1203.51 1539.38 Q1204.73 1538.83 1206.08 1538.83 Q1207.4 1538.83 1208.69 1539.18 Q1209.98 1539.51 1211.08 1540.57 Q1212.2 1541.6 1212.2 1543.18 Z" fill="#000000" fill-rule="evenodd" fill-opacity="1" /><path clip-path="url(#clip640)" d="M1216.71 1583.53 Q1216.71 1583.21 1216.96 1582.5 L1240.25 1520.28 Q1240.25 1520.21 1240.41 1519.86 Q1240.57 1519.51 1240.67 1519.28 Q1240.76 1519.02 1240.96 1518.83 Q1241.18 1518.64 1241.44 1518.64 Q1242.08 1518.64 1242.08 1519.44 Q1242.08 1519.51 1241.89 1520.28 L1218.54 1582.57 Q1218.15 1583.69 1217.9 1584.01 Q1217.67 1584.34 1217.29 1584.34 Q1216.71 1584.34 1216.71 1583.53 Z" fill="#000000" fill-rule="evenodd" fill-opacity="1" /><path clip-path="url(#clip640)" d="M1279.58 1558.54 Q1278.71 1562.69 1277.58 1565.08 Q1275.78 1568.72 1272.72 1568.72 Q1270.4 1568.72 1268.76 1567.3 Q1267.12 1565.88 1266.73 1563.76 Q1262.51 1568.72 1258.13 1568.72 Q1254.26 1568.72 1251.82 1565.79 Q1249.37 1562.82 1249.37 1558.15 Q1249.37 1553.45 1251.69 1548.94 Q1254.04 1544.43 1257.74 1541.63 Q1261.45 1538.83 1265.25 1538.83 Q1269.27 1538.83 1271.33 1543.05 Q1271.5 1541.89 1272.24 1541.02 Q1272.98 1540.15 1274.1 1540.15 Q1274.97 1540.15 1275.49 1540.63 Q1276 1541.08 1276 1541.92 Q1276 1542.34 1275.55 1544.18 L1273.17 1553.39 L1271.72 1559.34 Q1271.17 1561.53 1271.01 1562.34 Q1270.88 1563.15 1270.88 1564.21 Q1270.88 1567.24 1272.85 1567.24 Q1273.81 1567.24 1274.59 1566.62 Q1275.36 1566.01 1275.97 1564.72 Q1276.58 1563.44 1276.97 1562.24 Q1277.36 1561.02 1277.87 1559.09 Q1278.03 1558.31 1278.16 1558.12 Q1278.32 1557.9 1278.77 1557.9 Q1279.58 1557.9 1279.58 1558.54 M1270.53 1546.08 Q1270.53 1545.79 1270.3 1544.98 Q1270.08 1544.18 1269.56 1543.05 Q1269.05 1541.92 1267.92 1541.12 Q1266.83 1540.28 1265.34 1540.28 Q1263.35 1540.28 1261.25 1541.99 Q1259.19 1543.69 1257.68 1546.59 Q1256.52 1548.91 1255.26 1553.77 Q1254.04 1558.64 1254.04 1561.05 Q1254.04 1562.53 1254.36 1563.85 Q1254.72 1565.14 1255.71 1566.2 Q1256.71 1567.24 1258.26 1567.24 Q1262.03 1567.24 1265.73 1562.57 Q1266.44 1561.76 1266.6 1561.44 Q1266.79 1561.08 1267.05 1560.12 L1270.34 1547.2 Q1270.53 1546.24 1270.53 1546.08 Z" fill="#000000" fill-rule="evenodd" fill-opacity="1" /><polyline clip-path="url(#clip640)" style="stroke:#ffffff; stroke-linecap:round; stroke-linejoin:round; stroke-width:4; stroke-opacity:1; fill:none" points="
  110.512,1398.96 110.512,47.2441 
  "/>
<path clip-path="url(#clip640)" d="M-17.9148 746.375 Q-16.7232 746.439 -16.6588 747.244 Q-16.5943 748.468 -16.4333 749.209 Q-16.3045 749.949 -15.8214 751.109 Q-15.3383 752.268 -14.1789 753.395 Q-13.0195 754.523 -11.1838 755.682 L26.5937 779.418 Q27.3022 779.836 27.5277 780.191 Q27.7853 780.513 27.7853 781.253 Q27.7853 781.93 27.4955 782.187 Q27.2378 782.445 26.2717 782.574 L-14.4366 787.791 Q-15.1773 787.888 -15.4994 787.984 Q-15.8214 788.081 -16.1435 788.468 Q-16.4655 788.822 -16.5621 789.595 Q-16.6588 790.368 -16.6588 791.753 Q-16.6588 792.397 -16.691 792.687 Q-16.7232 792.944 -16.8842 793.17 Q-17.0774 793.395 -17.4639 793.395 Q-18.0436 793.395 -18.3335 793.17 Q-18.6555 792.912 -18.6877 792.719 Q-18.7199 792.493 -18.7199 792.139 Q-18.7199 791.592 -18.6555 790.4 Q-18.5911 789.208 -18.5911 788.596 Q-18.5911 788.017 -18.5589 786.793 Q-18.5267 785.569 -18.5267 784.957 Q-18.5267 783.604 -18.6233 780.867 Q-18.7199 778.097 -18.7199 776.777 Q-18.7199 775.875 -17.9792 775.875 Q-17.0774 775.875 -16.852 776.262 Q-16.6588 776.648 -16.6588 777.518 Q-16.6588 779.708 -16.1113 780.899 Q-15.5638 782.059 -14.6942 782.059 L20.2169 777.582 L-11.9889 757.324 Q-13.5026 756.326 -14.501 756.326 Q-16.4333 756.326 -16.6588 759.386 Q-16.6588 760.416 -17.4639 760.416 Q-18.0436 760.416 -18.3335 760.159 Q-18.6555 759.901 -18.6877 759.708 Q-18.7199 759.482 -18.7199 759.16 Q-18.7199 758.097 -18.6233 755.94 Q-18.5267 753.75 -18.5267 752.655 Q-18.5267 751.753 -18.6233 749.917 Q-18.7199 748.081 -18.7199 747.244 Q-18.7199 746.375 -17.9148 746.375 Z" fill="#000000" fill-rule="evenodd" fill-opacity="1" /><path clip-path="url(#clip640)" d="M9.84666 737.652 Q-1.29657 737.652 -10.282 733.498 Q-14.0501 731.726 -17.2063 729.246 Q-20.3624 726.767 -21.7473 725.124 Q-23.1321 723.482 -23.1321 723.031 Q-23.1321 722.387 -22.488 722.354 Q-22.166 722.354 -21.3608 723.224 Q-10.5396 733.852 9.84666 733.82 Q30.2974 733.82 40.6999 723.482 Q41.8271 722.354 42.1813 722.354 Q42.8255 722.354 42.8255 723.031 Q42.8255 723.482 41.505 725.06 Q40.1846 726.638 37.1572 729.085 Q34.1299 731.533 30.4262 733.304 Q21.4408 737.652 9.84666 737.652 Z" fill="#000000" fill-rule="evenodd" fill-opacity="1" /><path clip-path="url(#clip640)" d="M1.53755 684.491 Q3.34108 684.491 4.37167 685.618 Q5.37005 686.745 5.37005 688.033 Q5.37005 689.257 4.66152 689.901 Q3.95299 690.545 3.05123 690.545 Q1.8274 690.545 0.76461 689.644 Q-0.298184 688.742 -0.523625 687.389 Q-1.36098 688.71 -1.36098 690.674 Q-1.36098 691.963 -0.684654 693.09 Q-0.00833108 694.185 0.861227 694.861 Q1.73079 695.505 2.98681 696.085 Q4.21064 696.632 4.95137 696.858 Q5.6599 697.051 6.43284 697.212 L15.4505 699.466 Q19.7339 700.561 21.2475 700.561 Q23.1155 700.561 24.3715 699.66 Q25.5953 698.758 25.5953 696.954 Q25.5953 696.246 25.4021 695.441 Q25.1767 694.636 24.5969 693.605 Q23.985 692.542 23.0833 691.608 Q22.1493 690.642 20.5712 689.708 Q18.9931 688.774 16.9642 688.162 Q16.2556 687.969 16.2556 687.325 Q16.2556 686.52 16.8997 686.52 Q17.4472 686.52 18.6067 686.971 Q19.7339 687.389 21.2153 688.323 Q22.6646 689.225 23.985 690.417 Q25.2733 691.608 26.175 693.38 Q27.0768 695.151 27.0768 697.083 Q27.0768 699.853 25.5953 701.689 Q24.1139 703.524 22.0527 704.201 Q22.3425 704.362 22.729 704.587 Q23.1155 704.813 23.985 705.489 Q24.8224 706.133 25.4665 706.874 Q26.0784 707.615 26.5615 708.774 Q27.0768 709.901 27.0768 711.125 Q27.0768 712.671 26.6259 714.056 Q26.175 715.408 25.1444 716.375 Q24.1139 717.341 22.6968 717.341 Q21.1187 717.341 20.0237 716.278 Q18.8965 715.183 18.8965 713.701 Q18.8965 712.768 19.444 712.027 Q19.9915 711.254 21.1831 711.254 Q22.5036 711.254 23.5019 712.156 Q24.5003 713.057 24.758 714.346 Q25.5953 713.025 25.5953 711.061 Q25.5953 708.935 23.7274 707.26 Q21.8594 705.586 18.7355 704.78 Q11.2315 702.784 7.8821 702.011 Q4.50049 701.238 3.05123 701.238 Q1.69858 701.238 0.76461 701.592 Q-0.16936 701.946 -0.588037 702.558 Q-1.03892 703.138 -1.19995 703.685 Q-1.36098 704.201 -1.36098 704.78 Q-1.36098 705.747 -0.974507 706.842 Q-0.588037 707.904 0.313728 709.193 Q1.18329 710.449 2.98681 711.64 Q4.79034 712.832 7.27019 713.637 Q8.01093 713.798 8.01093 714.507 Q7.97872 715.28 7.33461 715.28 Q6.78711 715.28 5.6599 714.861 Q4.50049 714.41 3.05123 713.508 Q1.60196 712.574 0.313728 711.383 Q-1.00671 710.159 -1.90848 708.388 Q-2.81024 706.584 -2.81024 704.652 Q-2.81024 703.782 -2.61701 702.945 Q-2.45598 702.075 -1.97289 701.045 Q-1.4898 699.982 -0.427007 699.048 Q0.635786 698.114 2.18167 697.534 Q1.44093 697.148 0.732404 696.632 Q0.0238748 696.085 -0.845683 695.248 Q-1.74745 694.378 -2.26274 693.186 Q-2.81024 691.963 -2.81024 690.61 Q-2.81024 689.289 -2.45598 688.001 Q-2.13392 686.713 -1.07112 685.618 Q-0.0405369 684.491 1.53755 684.491 Z" fill="#000000" fill-rule="evenodd" fill-opacity="1" /><path clip-path="url(#clip640)" d="M42.1813 678.14 Q41.8593 678.14 41.0541 677.302 Q30.233 666.674 9.84666 666.674 Q-10.6041 666.674 -20.9421 676.884 Q-22.1338 678.14 -22.488 678.14 Q-23.1321 678.14 -23.1321 677.495 Q-23.1321 677.045 -21.8117 675.467 Q-20.4913 673.856 -17.4639 671.441 Q-14.4366 668.993 -10.7329 667.19 Q-1.74745 662.842 9.84666 662.842 Q20.9899 662.842 29.9753 666.996 Q33.7434 668.768 36.8996 671.248 Q40.0558 673.727 41.4406 675.37 Q42.8255 677.012 42.8255 677.495 Q42.8255 678.14 42.1813 678.14 Z" fill="#000000" fill-rule="evenodd" fill-opacity="1" /><polyline clip-path="url(#clip642)" style="stroke:#009af9; stroke-linecap:round; stroke-linejoin:round; stroke-width:8; stroke-opacity:1; fill:none" points="
  173.972,1006.48 195.125,1006.48 216.278,1006.48 237.432,1006.48 258.585,1006.48 279.738,1006.48 300.891,1006.48 322.045,1006.48 343.198,1006.48 364.351,1006.48 
  385.504,1006.48 406.658,1360.71 427.811,1360.71 448.964,1360.71 470.117,1360.71 491.271,1360.71 512.424,1360.71 533.577,1360.71 554.73,1360.71 575.883,1360.71 
  597.037,1360.71 618.19,1360.71 639.343,1360.71 660.496,1360.71 681.65,1360.71 702.803,1360.71 723.956,1360.71 745.109,1360.71 766.263,1360.71 787.416,1360.71 
  808.569,1360.71 829.722,1360.71 850.876,1360.71 872.029,1360.71 893.182,1360.71 914.335,1360.71 935.489,1360.71 956.642,1360.71 977.795,1360.71 998.948,1360.71 
  1020.1,1006.48 1041.25,1006.48 1062.41,1006.48 1083.56,1006.48 1104.71,1006.48 1125.87,1006.48 1147.02,1006.48 1168.17,1006.48 1189.33,1006.48 1210.48,1006.48 
  1231.63,1006.48 1252.79,1006.48 1273.94,1006.48 1295.09,1006.48 1316.25,1006.48 1337.4,1006.48 1358.55,1006.48 1379.71,1006.48 1400.86,1006.48 1422.01,1006.48 
  1443.17,1006.48 1464.32,1360.71 1485.47,1360.71 1506.63,1360.71 1527.78,1360.71 1548.93,1360.71 1570.09,1360.71 1591.24,1360.71 1612.39,1360.71 1633.55,1360.71 
  1654.7,1360.71 1675.85,1360.71 1697.01,1360.71 1718.16,1360.71 1739.31,1360.71 1760.47,1360.71 1781.62,1360.71 1802.77,1360.71 1823.92,1360.71 1845.08,1360.71 
  1866.23,1360.71 1887.38,1360.71 1908.54,1360.71 1929.69,1360.71 1950.84,1360.71 1972,1360.71 1993.15,1360.71 2014.3,1360.71 2035.46,1360.71 2056.61,1360.71 
  2077.76,1006.48 2098.92,1006.48 2120.07,1006.48 2141.22,1006.48 2162.38,1006.48 2183.53,1006.48 2204.68,1006.48 2225.84,1006.48 2246.99,1006.48 2268.14,1006.48 
  2289.3,1006.48 
  "/>
<polyline clip-path="url(#clip642)" style="stroke:#e26f46; stroke-linecap:round; stroke-linejoin:round; stroke-width:8; stroke-opacity:1; fill:none" points="
  173.972,829.371 195.125,871.028 216.278,910.984 237.432,949.24 258.585,985.796 279.738,1020.65 300.891,1053.81 322.045,1085.26 343.198,1115.02 364.351,1143.07 
  385.504,1169.43 406.658,1194.08 427.811,1217.03 448.964,1238.29 470.117,1257.84 491.271,1275.69 512.424,1291.85 533.577,1306.3 554.73,1319.05 575.883,1330.1 
  597.037,1339.45 618.19,1347.1 639.343,1353.06 660.496,1357.31 681.65,1359.86 702.803,1360.71 723.956,1359.86 745.109,1357.31 766.263,1353.06 787.416,1347.1 
  808.569,1339.45 829.722,1330.1 850.876,1319.05 872.029,1306.3 893.182,1291.85 914.335,1275.69 935.489,1257.84 956.642,1238.29 977.795,1217.03 998.948,1194.08 
  1020.1,1169.43 1041.25,1143.07 1062.41,1115.02 1083.56,1085.26 1104.71,1053.81 1125.87,1020.65 1147.02,985.796 1168.17,949.24 1189.33,910.984 1210.48,871.028 
  1231.63,829.371 1252.79,871.028 1273.94,910.984 1295.09,949.24 1316.25,985.796 1337.4,1020.65 1358.55,1053.81 1379.71,1085.26 1400.86,1115.02 1422.01,1143.07 
  1443.17,1169.43 1464.32,1194.08 1485.47,1217.03 1506.63,1238.29 1527.78,1257.84 1548.93,1275.69 1570.09,1291.85 1591.24,1306.3 1612.39,1319.05 1633.55,1330.1 
  1654.7,1339.45 1675.85,1347.1 1697.01,1353.06 1718.16,1357.31 1739.31,1359.86 1760.47,1360.71 1781.62,1359.86 1802.77,1357.31 1823.92,1353.06 1845.08,1347.1 
  1866.23,1339.45 1887.38,1330.1 1908.54,1319.05 1929.69,1306.3 1950.84,1291.85 1972,1275.69 1993.15,1257.84 2014.3,1238.29 2035.46,1217.03 2056.61,1194.08 
  2077.76,1169.43 2098.92,1143.07 2120.07,1115.02 2141.22,1085.26 2162.38,1053.81 2183.53,1020.65 2204.68,985.796 2225.84,949.24 2246.99,910.984 2268.14,871.028 
  2289.3,829.371 
  "/>
<polyline clip-path="url(#clip642)" style="stroke:#3da44d; stroke-linecap:round; stroke-linejoin:round; stroke-width:8; stroke-opacity:1; fill:none" points="
  173.972,85.5003 195.125,216.607 216.278,338.169 237.432,450.608 258.585,554.339 279.738,649.765 300.891,737.283 322.045,817.28 343.198,890.136 364.351,956.219 
  385.504,1015.89 406.658,1069.51 427.811,1117.4 448.964,1159.93 470.117,1197.39 491.271,1230.13 512.424,1258.43 533.577,1282.61 554.73,1302.96 575.883,1319.76 
  597.037,1333.28 618.19,1343.78 639.343,1351.54 660.496,1356.78 681.65,1359.76 702.803,1360.71 723.956,1359.84 745.109,1357.36 766.263,1353.5 787.416,1348.43 
  808.569,1342.34 829.722,1335.43 850.876,1327.84 872.029,1319.76 893.182,1311.32 914.335,1302.67 935.489,1293.95 956.642,1285.28 977.795,1276.79 998.948,1268.57 
  1020.1,1260.73 1041.25,1253.36 1062.41,1246.55 1083.56,1240.36 1104.71,1234.87 1125.87,1230.13 1147.02,1226.18 1168.17,1223.07 1189.33,1220.83 1210.48,1219.47 
  1231.63,1219.02 1252.79,1219.47 1273.94,1220.83 1295.09,1223.07 1316.25,1226.18 1337.4,1230.13 1358.55,1234.87 1379.71,1240.36 1400.86,1246.55 1422.01,1253.36 
  1443.17,1260.73 1464.32,1268.57 1485.47,1276.79 1506.63,1285.28 1527.78,1293.95 1548.93,1302.67 1570.09,1311.32 1591.24,1319.76 1612.39,1327.84 1633.55,1335.43 
  1654.7,1342.34 1675.85,1348.43 1697.01,1353.5 1718.16,1357.36 1739.31,1359.84 1760.47,1360.71 1781.62,1359.76 1802.77,1356.78 1823.92,1351.54 1845.08,1343.78 
  1866.23,1333.28 1887.38,1319.76 1908.54,1302.96 1929.69,1282.61 1950.84,1258.43 1972,1230.13 1993.15,1197.39 2014.3,1159.93 2035.46,1117.4 2056.61,1069.51 
  2077.76,1015.89 2098.92,956.219 2120.07,890.136 2141.22,817.28 2162.38,737.283 2183.53,649.765 2204.68,554.339 2225.84,450.608 2246.99,338.169 2268.14,216.607 
  2289.3,85.5003 
  "/>
<polyline clip-path="url(#clip642)" style="stroke:#c271d2; stroke-linecap:round; stroke-linejoin:round; stroke-width:8; stroke-opacity:1; fill:none" stroke-dasharray="4, 8" points="
  173.972,1006.48 1231.63,1006.48 2289.3,1006.48 
  "/>
<polyline clip-path="url(#clip642)" style="stroke:#000000; stroke-linecap:round; stroke-linejoin:round; stroke-width:4; stroke-opacity:1; fill:none" points="
  385.504,1112.75 448.964,1112.75 512.424,1112.75 575.883,1112.75 639.343,1112.75 702.803,1112.75 766.263,1112.75 829.722,1112.75 893.182,1112.75 956.642,1112.75 
  1020.1,1112.75 
  "/>
<path clip-path="url(#clip642)" d="
M984.102 1112.75 L984.102 1094.75 L1020.1 1112.75 L984.102 1130.75  Z
  " fill="#000000" fill-rule="evenodd" fill-opacity="1"/>
<polyline clip-path="url(#clip642)" style="stroke:#000000; stroke-linecap:round; stroke-linejoin:round; stroke-width:4; stroke-opacity:1; fill:none" points="
  984.102,1112.75 956.642,1112.75 
  "/>
<path clip-path="url(#clip642)" d="
M421.504 1112.75 L421.504 1130.75 L385.504 1112.75 L421.504 1094.75  Z
  " fill="#000000" fill-rule="evenodd" fill-opacity="1"/>
<polyline clip-path="url(#clip642)" style="stroke:#000000; stroke-linecap:round; stroke-linejoin:round; stroke-width:4; stroke-opacity:1; fill:none" points="
  421.504,1112.75 448.964,1112.75 
  "/>
<path clip-path="url(#clip640)" d="
M1939.94 299.661 L2278.01 299.661 L2278.01 92.3014 L1939.94 92.3014  Z
  " fill="#eaeaea" fill-rule="evenodd" fill-opacity="1"/>
<polyline clip-path="url(#clip640)" style="stroke:#ffffff; stroke-linecap:round; stroke-linejoin:round; stroke-width:4; stroke-opacity:1; fill:none" points="
  1939.94,299.661 2278.01,299.661 2278.01,92.3014 1939.94,92.3014 1939.94,299.661 
  "/>
<polyline clip-path="url(#clip640)" style="stroke:#009af9; stroke-linecap:round; stroke-linejoin:round; stroke-width:8; stroke-opacity:1; fill:none" points="
  1964.85,144.141 2114.33,144.141 
  "/>
<path clip-path="url(#clip640)" d="M2173.44 120.034 Q2173.4 120.901 2172.81 120.948 Q2171.92 120.995 2171.38 121.112 Q2170.84 121.205 2170 121.557 Q2169.16 121.908 2168.34 122.751 Q2167.52 123.594 2166.67 124.93 L2149.41 152.404 Q2149.11 152.919 2148.85 153.083 Q2148.61 153.271 2148.08 153.271 Q2147.58 153.271 2147.4 153.06 Q2147.21 152.873 2147.12 152.17 L2143.32 122.564 Q2143.25 122.025 2143.18 121.791 Q2143.11 121.557 2142.83 121.323 Q2142.57 121.088 2142.01 121.018 Q2141.45 120.948 2140.44 120.948 Q2139.97 120.948 2139.76 120.924 Q2139.57 120.901 2139.41 120.784 Q2139.25 120.643 2139.25 120.362 Q2139.25 119.941 2139.41 119.73 Q2139.6 119.496 2139.74 119.472 Q2139.9 119.449 2140.16 119.449 Q2140.56 119.449 2141.42 119.496 Q2142.29 119.542 2142.74 119.542 Q2143.16 119.542 2144.05 119.566 Q2144.94 119.589 2145.38 119.589 Q2146.37 119.589 2148.36 119.519 Q2150.37 119.449 2151.33 119.449 Q2151.99 119.449 2151.99 119.987 Q2151.99 120.643 2151.71 120.807 Q2151.43 120.948 2150.79 120.948 Q2149.2 120.948 2148.33 121.346 Q2147.49 121.744 2147.49 122.377 L2150.75 147.766 L2165.48 124.344 Q2166.21 123.243 2166.21 122.517 Q2166.21 121.112 2163.98 120.948 Q2163.23 120.948 2163.23 120.362 Q2163.23 119.941 2163.42 119.73 Q2163.61 119.496 2163.75 119.472 Q2163.91 119.449 2164.14 119.449 Q2164.92 119.449 2166.49 119.519 Q2168.08 119.589 2168.88 119.589 Q2169.53 119.589 2170.87 119.519 Q2172.2 119.449 2172.81 119.449 Q2173.44 119.449 2173.44 120.034 Z" fill="#000000" fill-rule="evenodd" fill-opacity="1" /><path clip-path="url(#clip640)" d="M2190.59 150.125 Q2190.59 151.043 2190.13 151.535 Q2189.67 152.01 2189.05 152.01 Q2188.54 152.01 2188.26 151.715 Q2188 151.42 2188 151.026 Q2188 150.452 2188.46 149.993 Q2188.93 149.534 2189.62 149.518 Q2189.39 148.911 2188.78 148.551 Q2188.18 148.173 2187.64 148.075 Q2187.11 147.977 2186.59 147.977 Q2185.55 147.977 2184.77 148.305 Q2183.98 148.633 2183.59 149.141 Q2183.19 149.633 2183.01 150.108 Q2182.83 150.584 2182.83 150.994 Q2182.83 151.354 2182.91 151.649 Q2183.01 151.928 2183.24 152.141 Q2183.47 152.338 2183.64 152.469 Q2183.82 152.6 2184.21 152.715 Q2184.6 152.83 2184.77 152.879 Q2184.93 152.912 2185.39 153.01 Q2186.34 153.207 2186.77 153.322 Q2187.19 153.42 2187.75 153.699 Q2188.33 153.978 2188.75 154.42 Q2189.78 155.453 2189.78 156.88 Q2189.78 157.404 2189.6 158.044 Q2189.44 158.683 2188.96 159.486 Q2188.49 160.29 2187.77 160.929 Q2187.05 161.569 2185.8 162.011 Q2184.57 162.454 2183.03 162.454 Q2180.88 162.454 2179.55 161.552 Q2178.23 160.634 2178.23 159.191 Q2178.23 158.142 2178.8 157.568 Q2179.37 156.978 2180.11 156.978 Q2180.67 156.978 2181.01 157.289 Q2181.36 157.585 2181.36 158.142 Q2181.36 158.896 2180.75 159.47 Q2180.14 160.044 2179.24 159.929 Q2180.01 161.7 2183.06 161.7 Q2184.21 161.7 2185.1 161.405 Q2186 161.093 2186.49 160.667 Q2187 160.224 2187.32 159.683 Q2187.65 159.142 2187.75 158.732 Q2187.87 158.322 2187.87 158.011 Q2187.87 157.47 2187.65 157.06 Q2187.44 156.65 2187.14 156.421 Q2186.87 156.175 2186.32 155.978 Q2185.8 155.765 2185.42 155.683 Q2185.05 155.601 2184.37 155.47 Q2184.06 155.404 2183.87 155.371 Q2183.67 155.322 2183.26 155.191 Q2182.87 155.043 2182.59 154.896 Q2182.32 154.748 2181.98 154.486 Q2181.64 154.223 2181.42 153.912 Q2181.21 153.6 2181.06 153.141 Q2180.91 152.682 2180.91 152.141 Q2180.91 151.649 2181.06 151.059 Q2181.23 150.469 2181.64 149.78 Q2182.06 149.092 2182.67 148.534 Q2183.28 147.977 2184.29 147.616 Q2185.32 147.239 2186.59 147.239 Q2188.42 147.239 2189.51 148.091 Q2190.59 148.928 2190.59 150.125 Z" fill="#000000" fill-rule="evenodd" fill-opacity="1" /><path clip-path="url(#clip640)" d="M2207.51 147.6 L2202.87 166.274 Q2202.74 166.865 2202.74 167.012 Q2202.74 167.209 2202.79 167.291 Q2202.86 167.389 2203.22 167.471 Q2203.6 167.553 2204.35 167.553 Q2204.63 167.553 2204.73 167.553 Q2204.83 167.553 2204.97 167.586 Q2205.12 167.619 2205.17 167.701 Q2205.22 167.783 2205.22 167.914 Q2205.22 168.586 2204.63 168.586 Q2204.07 168.586 2202.91 168.537 Q2201.74 168.488 2201.17 168.488 Q2200.61 168.488 2199.48 168.537 Q2198.35 168.586 2197.81 168.586 Q2197.61 168.586 2197.5 168.488 Q2197.38 168.406 2197.38 168.307 L2197.37 168.225 Q2197.37 167.766 2197.55 167.652 Q2197.73 167.553 2198.14 167.553 Q2199.55 167.537 2199.96 167.34 Q2200.37 167.143 2200.56 166.438 L2202.07 160.437 Q2200.05 162.454 2198.1 162.454 Q2196.22 162.454 2194.94 160.979 Q2193.68 159.486 2193.68 157.076 Q2193.68 155.289 2194.38 153.486 Q2195.1 151.682 2196.22 150.321 Q2197.35 148.96 2198.83 148.108 Q2200.3 147.239 2201.76 147.239 Q2202.69 147.239 2203.53 147.78 Q2204.38 148.321 2204.89 149.583 Q2205.32 148.862 2206.1 148.075 Q2206.89 147.272 2207.17 147.272 Q2207.33 147.272 2207.42 147.386 Q2207.51 147.485 2207.51 147.6 M2204.42 150.928 Q2204.42 150.764 2204.28 150.354 Q2204.17 149.944 2203.91 149.387 Q2203.66 148.813 2203.09 148.403 Q2202.51 147.977 2201.76 147.977 Q2200.68 147.977 2199.51 149.026 Q2198.37 150.059 2197.61 151.862 Q2197.14 153.043 2196.6 155.24 Q2196.05 157.437 2196.05 158.552 Q2196.05 158.814 2196.07 159.109 Q2196.1 159.405 2196.23 159.896 Q2196.37 160.388 2196.56 160.765 Q2196.78 161.142 2197.2 161.421 Q2197.63 161.7 2198.2 161.7 Q2199.45 161.7 2200.69 160.634 Q2201.94 159.568 2202.46 158.618 Q2202.53 158.519 2203.47 154.797 Q2204.42 151.075 2204.42 150.928 Z" fill="#000000" fill-rule="evenodd" fill-opacity="1" /><polyline clip-path="url(#clip640)" style="stroke:#e26f46; stroke-linecap:round; stroke-linejoin:round; stroke-width:8; stroke-opacity:1; fill:none" points="
  1964.85,195.981 2114.33,195.981 
  "/>
<path clip-path="url(#clip640)" d="M2173.44 171.874 Q2173.4 172.741 2172.81 172.788 Q2171.92 172.835 2171.38 172.952 Q2170.84 173.045 2170 173.397 Q2169.16 173.748 2168.34 174.591 Q2167.52 175.434 2166.67 176.77 L2149.41 204.244 Q2149.11 204.759 2148.85 204.923 Q2148.61 205.111 2148.08 205.111 Q2147.58 205.111 2147.4 204.9 Q2147.21 204.713 2147.12 204.01 L2143.32 174.404 Q2143.25 173.865 2143.18 173.631 Q2143.11 173.397 2142.83 173.163 Q2142.57 172.928 2142.01 172.858 Q2141.45 172.788 2140.44 172.788 Q2139.97 172.788 2139.76 172.764 Q2139.57 172.741 2139.41 172.624 Q2139.25 172.483 2139.25 172.202 Q2139.25 171.781 2139.41 171.57 Q2139.6 171.336 2139.74 171.312 Q2139.9 171.289 2140.16 171.289 Q2140.56 171.289 2141.42 171.336 Q2142.29 171.382 2142.74 171.382 Q2143.16 171.382 2144.05 171.406 Q2144.94 171.429 2145.38 171.429 Q2146.37 171.429 2148.36 171.359 Q2150.37 171.289 2151.33 171.289 Q2151.99 171.289 2151.99 171.827 Q2151.99 172.483 2151.71 172.647 Q2151.43 172.788 2150.79 172.788 Q2149.2 172.788 2148.33 173.186 Q2147.49 173.584 2147.49 174.217 L2150.75 199.606 L2165.48 176.184 Q2166.21 175.083 2166.21 174.357 Q2166.21 172.952 2163.98 172.788 Q2163.23 172.788 2163.23 172.202 Q2163.23 171.781 2163.42 171.57 Q2163.61 171.336 2163.75 171.312 Q2163.91 171.289 2164.14 171.289 Q2164.92 171.289 2166.49 171.359 Q2168.08 171.429 2168.88 171.429 Q2169.53 171.429 2170.87 171.359 Q2172.2 171.289 2172.81 171.289 Q2173.44 171.289 2173.44 171.874 Z" fill="#000000" fill-rule="evenodd" fill-opacity="1" /><path clip-path="url(#clip640)" d="M2195.77 204.44 Q2195.77 206.834 2194.56 209.146 Q2193.36 211.458 2191.47 212.884 Q2189.59 214.294 2187.67 214.294 Q2186.52 214.294 2185.75 213.671 Q2185 213.032 2184.59 212.13 Q2184.28 213.245 2183.6 215.917 Q2182.93 218.59 2182.93 218.852 Q2182.93 219 2182.96 219.065 Q2183 219.131 2183.14 219.213 Q2183.29 219.311 2183.65 219.344 Q2184.01 219.393 2184.62 219.393 Q2184.93 219.393 2185.05 219.393 Q2185.18 219.41 2185.29 219.492 Q2185.42 219.574 2185.42 219.754 Q2185.42 220.426 2184.82 220.426 Q2184.28 220.426 2183.16 220.377 Q2182.05 220.328 2181.49 220.328 Q2181.01 220.328 2180.06 220.377 Q2179.11 220.426 2178.67 220.426 Q2178.23 220.426 2178.23 220.033 Q2178.23 219.803 2178.29 219.656 Q2178.34 219.524 2178.47 219.459 Q2178.6 219.41 2178.72 219.393 Q2178.82 219.393 2179.01 219.393 Q2179.77 219.393 2180.09 219.262 Q2180.42 219.147 2180.54 218.901 Q2180.67 218.672 2180.82 218.016 L2184.59 203.063 Q2184.82 202.063 2184.82 201.358 Q2184.82 200.473 2184.54 200.145 Q2184.26 199.817 2183.77 199.817 Q2182.91 199.817 2182.36 200.833 Q2181.8 201.85 2181.32 203.817 Q2181.18 204.358 2181.08 204.473 Q2181 204.588 2180.75 204.588 Q2180.34 204.571 2180.34 204.244 Q2180.34 204.162 2180.47 203.637 Q2180.6 203.096 2180.85 202.309 Q2181.11 201.505 2181.39 200.997 Q2181.55 200.653 2181.7 200.423 Q2181.85 200.194 2182.14 199.833 Q2182.46 199.472 2182.9 199.276 Q2183.34 199.079 2183.88 199.079 Q2184.93 199.079 2185.8 199.702 Q2186.67 200.325 2186.9 201.587 Q2187.83 200.489 2188.98 199.784 Q2190.13 199.079 2191.29 199.079 Q2193.23 199.079 2194.49 200.587 Q2195.77 202.079 2195.77 204.44 M2193.34 202.965 Q2193.34 201.473 2192.77 200.653 Q2192.21 199.817 2191.19 199.817 Q2189.93 199.817 2188.47 201.096 Q2187.03 202.309 2186.73 203.44 L2185.08 210.015 L2184.98 210.556 Q2184.98 210.654 2185.03 210.949 Q2185.1 211.228 2185.28 211.687 Q2185.47 212.146 2185.73 212.556 Q2186.01 212.95 2186.51 213.245 Q2187.01 213.54 2187.64 213.54 Q2188.64 213.54 2189.72 212.655 Q2190.82 211.769 2191.64 210.097 Q2192.15 209.015 2192.74 206.687 Q2193.34 204.342 2193.34 202.965 Z" fill="#000000" fill-rule="evenodd" fill-opacity="1" /><path clip-path="url(#clip640)" d="M2213.01 209.113 Q2212.57 211.228 2212 212.441 Q2211.08 214.294 2209.52 214.294 Q2208.34 214.294 2207.51 213.573 Q2206.67 212.851 2206.47 211.769 Q2204.33 214.294 2202.1 214.294 Q2200.13 214.294 2198.88 212.802 Q2197.64 211.294 2197.64 208.916 Q2197.64 206.523 2198.82 204.227 Q2200.01 201.932 2201.9 200.505 Q2203.78 199.079 2205.72 199.079 Q2207.77 199.079 2208.82 201.227 Q2208.9 200.636 2209.28 200.194 Q2209.65 199.751 2210.23 199.751 Q2210.67 199.751 2210.93 199.997 Q2211.19 200.227 2211.19 200.653 Q2211.19 200.866 2210.97 201.801 L2209.75 206.49 L2209.01 209.523 Q2208.74 210.638 2208.65 211.048 Q2208.59 211.458 2208.59 211.999 Q2208.59 213.54 2209.59 213.54 Q2210.08 213.54 2210.47 213.228 Q2210.87 212.917 2211.18 212.261 Q2211.49 211.605 2211.69 210.999 Q2211.88 210.376 2212.15 209.392 Q2212.23 208.998 2212.29 208.9 Q2212.38 208.785 2212.61 208.785 Q2213.01 208.785 2213.01 209.113 M2208.41 202.768 Q2208.41 202.62 2208.29 202.21 Q2208.18 201.801 2207.92 201.227 Q2207.65 200.653 2207.08 200.243 Q2206.52 199.817 2205.77 199.817 Q2204.75 199.817 2203.69 200.686 Q2202.64 201.555 2201.87 203.03 Q2201.28 204.211 2200.64 206.687 Q2200.01 209.162 2200.01 210.392 Q2200.01 211.146 2200.18 211.818 Q2200.36 212.474 2200.87 213.015 Q2201.37 213.54 2202.16 213.54 Q2204.08 213.54 2205.96 211.163 Q2206.33 210.753 2206.41 210.589 Q2206.51 210.408 2206.64 209.916 L2208.31 203.342 Q2208.41 202.85 2208.41 202.768 Z" fill="#000000" fill-rule="evenodd" fill-opacity="1" /><path clip-path="url(#clip640)" d="M2228.09 201.26 Q2228.09 202.129 2227.51 202.686 Q2226.95 203.243 2226.23 203.243 Q2225.61 203.243 2225.28 202.883 Q2224.95 202.522 2224.95 202.063 Q2224.95 201.407 2225.46 200.866 Q2225.97 200.325 2226.71 200.21 Q2226.17 199.817 2225.3 199.817 Q2223.87 199.817 2222.61 200.915 Q2222.05 201.423 2221.45 202.358 Q2220.84 203.276 2220.72 203.67 L2219.66 208.047 Q2219.56 208.539 2218.95 210.9 Q2218.36 213.245 2218.31 213.343 Q2218.15 213.802 2217.79 214.048 Q2217.43 214.294 2217.07 214.294 Q2216.66 214.294 2216.38 214.048 Q2216.1 213.802 2216.1 213.376 Q2216.1 213.31 2216.15 213.064 Q2216.2 212.819 2216.28 212.474 Q2216.36 212.13 2216.4 211.933 L2218.35 204.178 Q2218.71 202.768 2218.79 202.325 Q2218.89 201.866 2218.89 201.358 Q2218.89 200.473 2218.61 200.145 Q2218.33 199.817 2217.84 199.817 Q2216.99 199.817 2216.43 200.833 Q2215.87 201.85 2215.4 203.817 Q2215.25 204.358 2215.15 204.473 Q2215.07 204.588 2214.82 204.588 Q2214.41 204.571 2214.41 204.244 Q2214.41 204.162 2214.54 203.637 Q2214.67 203.096 2214.92 202.309 Q2215.18 201.505 2215.46 200.997 Q2215.63 200.653 2215.77 200.423 Q2215.92 200.194 2216.22 199.833 Q2216.51 199.472 2216.95 199.276 Q2217.4 199.079 2217.94 199.079 Q2219.12 199.079 2219.95 199.8 Q2220.81 200.522 2221 201.653 Q2221.41 201.063 2221.92 200.555 Q2222.43 200.03 2223.36 199.554 Q2224.3 199.079 2225.3 199.079 Q2226.55 199.079 2227.32 199.718 Q2228.09 200.341 2228.09 201.26 Z" fill="#000000" fill-rule="evenodd" fill-opacity="1" /><path clip-path="url(#clip640)" d="M2245.78 209.113 Q2245.33 211.228 2244.76 212.441 Q2243.84 214.294 2242.28 214.294 Q2241.1 214.294 2240.27 213.573 Q2239.43 212.851 2239.24 211.769 Q2237.09 214.294 2234.86 214.294 Q2232.89 214.294 2231.64 212.802 Q2230.4 211.294 2230.4 208.916 Q2230.4 206.523 2231.58 204.227 Q2232.78 201.932 2234.66 200.505 Q2236.55 199.079 2238.48 199.079 Q2240.53 199.079 2241.58 201.227 Q2241.66 200.636 2242.04 200.194 Q2242.42 199.751 2242.99 199.751 Q2243.43 199.751 2243.69 199.997 Q2243.96 200.227 2243.96 200.653 Q2243.96 200.866 2243.73 201.801 L2242.51 206.49 L2241.78 209.523 Q2241.5 210.638 2241.42 211.048 Q2241.35 211.458 2241.35 211.999 Q2241.35 213.54 2242.35 213.54 Q2242.84 213.54 2243.24 213.228 Q2243.63 212.917 2243.94 212.261 Q2244.25 211.605 2244.45 210.999 Q2244.65 210.376 2244.91 209.392 Q2244.99 208.998 2245.06 208.9 Q2245.14 208.785 2245.37 208.785 Q2245.78 208.785 2245.78 209.113 M2241.17 202.768 Q2241.17 202.62 2241.05 202.21 Q2240.94 201.801 2240.68 201.227 Q2240.42 200.653 2239.84 200.243 Q2239.28 199.817 2238.53 199.817 Q2237.51 199.817 2236.45 200.686 Q2235.4 201.555 2234.63 203.03 Q2234.04 204.211 2233.4 206.687 Q2232.78 209.162 2232.78 210.392 Q2232.78 211.146 2232.94 211.818 Q2233.12 212.474 2233.63 213.015 Q2234.14 213.54 2234.92 213.54 Q2236.84 213.54 2238.73 211.163 Q2239.09 210.753 2239.17 210.589 Q2239.27 210.408 2239.4 209.916 L2241.07 203.342 Q2241.17 202.85 2241.17 202.768 Z" fill="#000000" fill-rule="evenodd" fill-opacity="1" /><polyline clip-path="url(#clip640)" style="stroke:#3da44d; stroke-linecap:round; stroke-linejoin:round; stroke-width:8; stroke-opacity:1; fill:none" points="
  1964.85,247.821 2114.33,247.821 
  "/>
<path clip-path="url(#clip640)" d="M2173.44 226.749 Q2173.4 227.616 2172.81 227.663 Q2171.92 227.71 2171.38 227.827 Q2170.84 227.921 2170 228.272 Q2169.16 228.623 2168.34 229.466 Q2167.52 230.31 2166.67 231.645 L2149.41 259.119 Q2149.11 259.635 2148.85 259.798 Q2148.61 259.986 2148.08 259.986 Q2147.58 259.986 2147.4 259.775 Q2147.21 259.588 2147.12 258.885 L2143.32 229.279 Q2143.25 228.74 2143.18 228.506 Q2143.11 228.272 2142.83 228.038 Q2142.57 227.803 2142.01 227.733 Q2141.45 227.663 2140.44 227.663 Q2139.97 227.663 2139.76 227.639 Q2139.57 227.616 2139.41 227.499 Q2139.25 227.358 2139.25 227.077 Q2139.25 226.656 2139.41 226.445 Q2139.6 226.211 2139.74 226.187 Q2139.9 226.164 2140.16 226.164 Q2140.56 226.164 2141.42 226.211 Q2142.29 226.258 2142.74 226.258 Q2143.16 226.258 2144.05 226.281 Q2144.94 226.304 2145.38 226.304 Q2146.37 226.304 2148.36 226.234 Q2150.37 226.164 2151.33 226.164 Q2151.99 226.164 2151.99 226.703 Q2151.99 227.358 2151.71 227.522 Q2151.43 227.663 2150.79 227.663 Q2149.2 227.663 2148.33 228.061 Q2147.49 228.459 2147.49 229.092 L2150.75 254.482 L2165.48 231.059 Q2166.21 229.958 2166.21 229.232 Q2166.21 227.827 2163.98 227.663 Q2163.23 227.663 2163.23 227.077 Q2163.23 226.656 2163.42 226.445 Q2163.61 226.211 2163.75 226.187 Q2163.91 226.164 2164.14 226.164 Q2164.92 226.164 2166.49 226.234 Q2168.08 226.304 2168.88 226.304 Q2169.53 226.304 2170.87 226.234 Q2172.2 226.164 2172.81 226.164 Q2173.44 226.164 2173.44 226.749 Z" fill="#000000" fill-rule="evenodd" fill-opacity="1" /><path clip-path="url(#clip640)" d="M2205.74 263.988 Q2205.74 264.119 2205.59 264.628 Q2205.44 265.136 2205.08 265.923 Q2204.74 266.71 2204.25 267.431 Q2203.77 268.136 2202.98 268.661 Q2202.21 269.169 2201.33 269.169 Q2200.15 269.169 2199.36 268.382 Q2198.57 267.595 2198.57 266.415 Q2198.57 265.775 2199.02 264.562 Q2201.1 259.02 2201.1 257.036 Q2201.1 254.692 2199.28 254.692 Q2198.24 254.692 2197.31 255.118 Q2196.38 255.544 2195.77 256.135 Q2195.16 256.725 2194.69 257.397 Q2194.21 258.069 2194 258.512 Q2193.8 258.955 2193.75 259.152 L2191.74 267.251 Q2191.57 267.94 2191.46 268.268 Q2191.34 268.595 2191.03 268.874 Q2190.72 269.169 2190.23 269.169 Q2189.82 269.169 2189.52 268.923 Q2189.24 268.677 2189.24 268.251 Q2189.24 268.186 2189.33 267.841 Q2189.41 267.497 2189.52 267.021 Q2189.64 266.546 2189.69 266.267 Q2190.28 264.037 2190.36 263.726 L2191.29 259.824 Q2191.8 257.889 2191.8 257.036 Q2191.8 254.692 2189.98 254.692 Q2189.08 254.692 2188.23 255.036 Q2187.39 255.364 2186.82 255.823 Q2186.24 256.282 2185.72 256.922 Q2185.21 257.545 2184.95 257.971 Q2184.7 258.381 2184.5 258.791 L2184.08 260.463 Q2183.98 260.922 2183.5 262.709 L2182.77 265.743 Q2182.24 268.005 2182.13 268.218 Q2181.96 268.677 2181.6 268.923 Q2181.24 269.169 2180.88 269.169 Q2180.47 269.169 2180.19 268.923 Q2179.91 268.677 2179.91 268.251 Q2179.91 268.186 2179.96 267.94 Q2180.01 267.694 2180.09 267.349 Q2180.18 267.005 2180.21 266.808 L2182.16 259.053 Q2182.52 257.643 2182.6 257.2 Q2182.7 256.741 2182.7 256.233 Q2182.7 254.692 2181.65 254.692 Q2180.8 254.692 2180.24 255.708 Q2179.68 256.725 2179.21 258.692 Q2179.06 259.233 2178.96 259.348 Q2178.88 259.463 2178.64 259.463 Q2178.23 259.447 2178.23 259.119 Q2178.23 259.037 2178.36 258.512 Q2178.49 257.987 2178.73 257.2 Q2179 256.397 2179.27 255.872 Q2179.44 255.528 2179.59 255.299 Q2179.73 255.069 2180.03 254.708 Q2180.32 254.348 2180.77 254.151 Q2181.21 253.954 2181.75 253.954 Q2182.95 253.954 2183.83 254.725 Q2184.73 255.495 2184.85 256.872 Q2187.03 253.954 2190.08 253.954 Q2191.8 253.954 2192.83 254.823 Q2193.8 255.659 2193.92 257.2 Q2196.18 253.954 2199.39 253.954 Q2201.24 253.954 2202.25 254.921 Q2203.25 255.872 2203.25 257.545 Q2203.25 258.414 2202.8 260.07 Q2202.36 261.709 2202.06 262.529 Q2201.77 263.349 2201.2 264.923 Q2200.59 266.431 2200.59 267.317 Q2200.59 267.89 2200.79 268.153 Q2200.98 268.415 2201.41 268.415 Q2202.06 268.415 2202.64 268.038 Q2203.21 267.644 2203.62 267.005 Q2204.05 266.349 2204.33 265.693 Q2204.61 265.021 2204.82 264.267 Q2204.95 263.857 2205.02 263.759 Q2205.1 263.66 2205.33 263.66 Q2205.74 263.66 2205.74 263.988 Z" fill="#000000" fill-rule="evenodd" fill-opacity="1" /><path clip-path="url(#clip640)" d="M1207.92 763.802 Q1207.87 764.886 1207.13 764.944 Q1206.02 765.003 1205.35 765.149 Q1204.67 765.266 1203.62 765.706 Q1202.57 766.145 1201.54 767.199 Q1200.52 768.253 1199.46 769.922 L1177.88 804.265 Q1177.5 804.909 1177.18 805.114 Q1176.89 805.348 1176.22 805.348 Q1175.6 805.348 1175.37 805.084 Q1175.13 804.85 1175.02 803.972 L1170.27 766.964 Q1170.18 766.291 1170.1 765.998 Q1170.01 765.706 1169.66 765.413 Q1169.34 765.12 1168.63 765.032 Q1167.93 764.944 1166.67 764.944 Q1166.09 764.944 1165.82 764.915 Q1165.59 764.886 1165.38 764.739 Q1165.18 764.564 1165.18 764.212 Q1165.18 763.685 1165.38 763.422 Q1165.62 763.129 1165.79 763.1 Q1166 763.07 1166.32 763.07 Q1166.82 763.07 1167.9 763.129 Q1168.98 763.188 1169.54 763.188 Q1170.07 763.188 1171.18 763.217 Q1172.29 763.246 1172.85 763.246 Q1174.08 763.246 1176.57 763.158 Q1179.08 763.07 1180.29 763.07 Q1181.11 763.07 1181.11 763.744 Q1181.11 764.564 1180.75 764.769 Q1180.4 764.944 1179.61 764.944 Q1177.62 764.944 1176.54 765.442 Q1175.48 765.94 1175.48 766.73 L1179.55 798.468 L1197.97 769.19 Q1198.88 767.814 1198.88 766.906 Q1198.88 765.149 1196.1 764.944 Q1195.16 764.944 1195.16 764.212 Q1195.16 763.685 1195.39 763.422 Q1195.63 763.129 1195.8 763.1 Q1196.01 763.07 1196.3 763.07 Q1197.27 763.07 1199.23 763.158 Q1201.22 763.246 1202.21 763.246 Q1203.03 763.246 1204.7 763.158 Q1206.37 763.07 1207.13 763.07 Q1207.92 763.07 1207.92 763.802 Z" fill="#000000" fill-rule="evenodd" fill-opacity="1" /><path clip-path="url(#clip640)" d="M1230.08 811.511 Q1230.24 811.695 1230.24 811.88 Q1230.24 812.064 1229.83 812.597 Q1229.44 813.13 1228.6 813.847 Q1227.76 814.564 1226.67 815.241 Q1225.59 815.917 1223.99 816.368 Q1222.39 816.839 1220.71 816.839 Q1217.57 816.839 1215.73 814.769 Q1213.91 812.699 1213.91 809.728 Q1213.91 806.838 1215.53 804.071 Q1217.14 801.284 1219.77 799.562 Q1222.39 797.82 1225.16 797.82 Q1227.35 797.82 1228.72 798.845 Q1230.1 799.87 1230.1 801.427 Q1230.1 802.637 1229.4 803.374 Q1228.7 804.112 1227.76 804.112 Q1227.1 804.112 1226.65 803.743 Q1226.2 803.354 1226.2 802.637 Q1226.2 801.714 1226.96 800.997 Q1227.25 800.71 1227.58 800.587 Q1227.92 800.444 1228.13 800.444 Q1228.33 800.423 1228.81 800.423 Q1228.38 799.624 1227.35 799.193 Q1226.35 798.743 1225.2 798.743 Q1223.5 798.743 1221.88 799.931 Q1220.26 801.099 1219.28 802.944 Q1218.29 804.748 1217.66 807.309 Q1217.02 809.851 1217.02 811.326 Q1217.02 813.355 1217.96 814.626 Q1218.91 815.897 1220.79 815.897 Q1221.16 815.897 1221.55 815.876 Q1221.96 815.856 1222.99 815.63 Q1224.03 815.405 1224.95 815.015 Q1225.87 814.626 1227.04 813.786 Q1228.23 812.925 1229.17 811.757 Q1229.5 811.326 1229.73 811.326 Q1229.91 811.326 1230.08 811.511 Z" fill="#000000" fill-rule="evenodd" fill-opacity="1" /><path clip-path="url(#clip640)" d="M1252.3 810.363 Q1251.76 813.007 1251.05 814.523 Q1249.88 816.839 1247.93 816.839 Q1246.58 816.839 1245.55 816.081 Q1244.55 815.302 1244.2 814.011 Q1243.81 814.523 1243.46 814.872 Q1243.14 815.22 1242.5 815.753 Q1241.86 816.266 1241 816.552 Q1240.16 816.839 1239.2 816.839 Q1238.46 816.839 1237.79 816.696 Q1237.11 816.573 1236.39 816.225 Q1235.7 815.856 1235.18 815.302 Q1234.69 814.749 1234.36 813.847 Q1234.04 812.945 1234.04 811.798 Q1234.04 810.363 1234.59 808.416 Q1235.16 806.469 1236.47 802.985 Q1237.19 801.14 1237.19 800.116 Q1237.19 799.644 1237.09 799.337 Q1236.99 799.03 1236.78 798.927 Q1236.6 798.804 1236.47 798.784 Q1236.35 798.743 1236.15 798.743 Q1234.88 798.743 1233.77 800.034 Q1232.66 801.325 1231.9 803.948 Q1231.74 804.461 1231.64 804.584 Q1231.54 804.707 1231.23 804.707 Q1230.72 804.686 1230.72 804.276 Q1230.72 804.112 1230.9 803.477 Q1231.08 802.821 1231.51 801.858 Q1231.97 800.874 1232.58 799.993 Q1233.2 799.091 1234.16 798.456 Q1235.14 797.82 1236.27 797.82 Q1237.81 797.82 1238.75 798.825 Q1239.71 799.808 1239.71 801.263 Q1239.71 802.165 1239 803.907 Q1236.72 809.953 1236.72 812.474 Q1236.72 815.897 1239.32 815.897 Q1240.18 815.897 1240.98 815.548 Q1241.8 815.2 1242.34 814.708 Q1242.87 814.216 1243.28 813.683 Q1243.71 813.15 1243.89 812.802 Q1244.1 812.454 1244.12 812.372 L1247.25 799.747 Q1247.38 799.255 1247.6 798.927 Q1247.85 798.579 1248.14 798.456 Q1248.42 798.333 1248.59 798.312 Q1248.75 798.271 1248.89 798.271 Q1249.41 798.271 1249.75 798.579 Q1250.12 798.886 1250.12 799.419 Q1250.12 799.521 1250 800.013 Q1249.9 800.485 1249.73 801.181 Q1249.57 801.858 1249.49 802.227 Q1248.83 804.809 1248.77 805.075 L1247.6 809.605 Q1247.54 809.871 1247.34 810.732 Q1247.15 811.593 1247.05 812.044 Q1246.95 812.474 1246.84 813.068 Q1246.76 813.642 1246.76 813.97 Q1246.76 814.995 1247.07 815.446 Q1247.38 815.897 1248.05 815.897 Q1248.69 815.897 1249.18 815.466 Q1249.69 815.015 1250.08 814.155 Q1250.47 813.273 1250.7 812.556 Q1250.92 811.839 1251.21 810.711 Q1251.31 810.22 1251.39 810.097 Q1251.5 809.953 1251.78 809.953 Q1252.3 809.953 1252.3 810.363 Z" fill="#000000" fill-rule="evenodd" fill-opacity="1" /><path clip-path="url(#clip640)" d="M1270.28 801.427 Q1270.28 802.575 1269.7 803.19 Q1269.13 803.784 1268.35 803.784 Q1267.71 803.784 1267.36 803.415 Q1267.04 803.046 1267.04 802.555 Q1267.04 801.837 1267.61 801.263 Q1268.21 800.69 1269.07 800.669 Q1268.78 799.911 1268.02 799.46 Q1267.26 798.989 1266.59 798.866 Q1265.93 798.743 1265.27 798.743 Q1263.98 798.743 1263 799.152 Q1262.02 799.562 1261.52 800.198 Q1261.03 800.813 1260.81 801.407 Q1260.58 802.001 1260.58 802.514 Q1260.58 802.964 1260.68 803.333 Q1260.81 803.682 1261.09 803.948 Q1261.38 804.194 1261.59 804.358 Q1261.81 804.522 1262.3 804.666 Q1262.79 804.809 1263 804.87 Q1263.2 804.911 1263.78 805.034 Q1264.97 805.28 1265.5 805.424 Q1266.03 805.547 1266.73 805.895 Q1267.45 806.244 1267.98 806.797 Q1269.27 808.088 1269.27 809.871 Q1269.27 810.527 1269.05 811.326 Q1268.84 812.126 1268.25 813.13 Q1267.65 814.134 1266.75 814.933 Q1265.85 815.733 1264.29 816.286 Q1262.75 816.839 1260.83 816.839 Q1258.14 816.839 1256.48 815.712 Q1254.82 814.564 1254.82 812.761 Q1254.82 811.449 1255.54 810.732 Q1256.26 809.994 1257.18 809.994 Q1257.88 809.994 1258.31 810.384 Q1258.74 810.752 1258.74 811.449 Q1258.74 812.392 1257.98 813.109 Q1257.22 813.827 1256.09 813.683 Q1257.06 815.897 1260.87 815.897 Q1262.3 815.897 1263.41 815.528 Q1264.54 815.138 1265.15 814.605 Q1265.79 814.052 1266.2 813.376 Q1266.61 812.699 1266.73 812.187 Q1266.87 811.675 1266.87 811.285 Q1266.87 810.609 1266.61 810.097 Q1266.34 809.584 1265.97 809.297 Q1265.62 808.99 1264.95 808.744 Q1264.29 808.478 1263.82 808.375 Q1263.35 808.273 1262.51 808.109 Q1262.12 808.027 1261.87 807.986 Q1261.63 807.924 1261.11 807.76 Q1260.62 807.576 1260.27 807.391 Q1259.95 807.207 1259.52 806.879 Q1259.08 806.551 1258.82 806.162 Q1258.55 805.772 1258.37 805.198 Q1258.18 804.625 1258.18 803.948 Q1258.18 803.333 1258.37 802.596 Q1258.57 801.858 1259.08 800.997 Q1259.62 800.136 1260.38 799.439 Q1261.13 798.743 1262.41 798.292 Q1263.7 797.82 1265.27 797.82 Q1267.57 797.82 1268.92 798.886 Q1270.28 799.931 1270.28 801.427 Z" fill="#000000" fill-rule="evenodd" fill-opacity="1" /><path clip-path="url(#clip640)" d="M1292.71 804.522 Q1292.71 807.514 1291.19 810.404 Q1289.7 813.294 1287.34 815.077 Q1284.98 816.839 1282.59 816.839 Q1281.15 816.839 1280.19 816.061 Q1279.25 815.261 1278.73 814.134 Q1278.34 815.528 1277.5 818.868 Q1276.66 822.209 1276.66 822.537 Q1276.66 822.721 1276.7 822.803 Q1276.75 822.885 1276.93 822.988 Q1277.11 823.111 1277.57 823.152 Q1278.02 823.213 1278.77 823.213 Q1279.16 823.213 1279.31 823.213 Q1279.47 823.234 1279.61 823.336 Q1279.78 823.439 1279.78 823.664 Q1279.78 824.504 1279.02 824.504 Q1278.34 824.504 1276.95 824.443 Q1275.56 824.381 1274.86 824.381 Q1274.27 824.381 1273.08 824.443 Q1271.89 824.504 1271.34 824.504 Q1270.78 824.504 1270.78 824.012 Q1270.78 823.726 1270.86 823.541 Q1270.93 823.377 1271.09 823.295 Q1271.25 823.234 1271.4 823.213 Q1271.52 823.213 1271.77 823.213 Q1272.71 823.213 1273.12 823.049 Q1273.53 822.906 1273.67 822.598 Q1273.84 822.311 1274.02 821.492 L1278.73 802.801 Q1279.02 801.55 1279.02 800.669 Q1279.02 799.562 1278.67 799.152 Q1278.32 798.743 1277.71 798.743 Q1276.64 798.743 1275.95 800.013 Q1275.25 801.284 1274.66 803.743 Q1274.47 804.42 1274.35 804.563 Q1274.25 804.707 1273.94 804.707 Q1273.43 804.686 1273.43 804.276 Q1273.43 804.174 1273.59 803.518 Q1273.75 802.842 1274.06 801.858 Q1274.39 800.854 1274.74 800.218 Q1274.94 799.788 1275.13 799.501 Q1275.31 799.214 1275.68 798.763 Q1276.07 798.312 1276.62 798.066 Q1277.18 797.82 1277.85 797.82 Q1279.16 797.82 1280.25 798.599 Q1281.34 799.378 1281.62 800.956 Q1282.79 799.583 1284.23 798.702 Q1285.66 797.82 1287.12 797.82 Q1289.53 797.82 1291.11 799.706 Q1292.71 801.571 1292.71 804.522 M1289.68 802.678 Q1289.68 800.813 1288.96 799.788 Q1288.26 798.743 1286.99 798.743 Q1285.41 798.743 1283.59 800.341 Q1281.79 801.858 1281.42 803.272 L1279.35 811.49 L1279.23 812.167 Q1279.23 812.29 1279.29 812.658 Q1279.37 813.007 1279.59 813.581 Q1279.84 814.155 1280.17 814.667 Q1280.52 815.159 1281.13 815.528 Q1281.77 815.897 1282.55 815.897 Q1283.8 815.897 1285.15 814.79 Q1286.52 813.683 1287.55 811.593 Q1288.18 810.24 1288.92 807.33 Q1289.68 804.399 1289.68 802.678 Z" fill="#000000" fill-rule="evenodd" fill-opacity="1" /><path clip-path="url(#clip640)" d="M1205.94 1157.24 Q1205.88 1158.33 1205.15 1158.39 Q1204.04 1158.44 1203.36 1158.59 Q1202.69 1158.71 1201.64 1159.15 Q1200.58 1159.59 1199.56 1160.64 Q1198.53 1161.69 1197.48 1163.36 L1175.9 1197.71 Q1175.52 1198.35 1175.2 1198.56 Q1174.91 1198.79 1174.23 1198.79 Q1173.62 1198.79 1173.38 1198.53 Q1173.15 1198.29 1173.03 1197.41 L1168.29 1160.41 Q1168.2 1159.73 1168.11 1159.44 Q1168.03 1159.15 1167.67 1158.85 Q1167.35 1158.56 1166.65 1158.47 Q1165.95 1158.39 1164.69 1158.39 Q1164.1 1158.39 1163.84 1158.36 Q1163.61 1158.33 1163.4 1158.18 Q1163.2 1158.01 1163.2 1157.65 Q1163.2 1157.13 1163.4 1156.86 Q1163.63 1156.57 1163.81 1156.54 Q1164.01 1156.51 1164.34 1156.51 Q1164.83 1156.51 1165.92 1156.57 Q1167 1156.63 1167.56 1156.63 Q1168.08 1156.63 1169.2 1156.66 Q1170.31 1156.69 1170.87 1156.69 Q1172.1 1156.69 1174.58 1156.6 Q1177.1 1156.51 1178.3 1156.51 Q1179.12 1156.51 1179.12 1157.19 Q1179.12 1158.01 1178.77 1158.21 Q1178.42 1158.39 1177.63 1158.39 Q1175.64 1158.39 1174.55 1158.88 Q1173.5 1159.38 1173.5 1160.17 L1177.57 1191.91 L1195.99 1162.63 Q1196.89 1161.26 1196.89 1160.35 Q1196.89 1158.59 1194.11 1158.39 Q1193.18 1158.39 1193.18 1157.65 Q1193.18 1157.13 1193.41 1156.86 Q1193.64 1156.57 1193.82 1156.54 Q1194.02 1156.51 1194.32 1156.51 Q1195.28 1156.51 1197.25 1156.6 Q1199.24 1156.69 1200.23 1156.69 Q1201.05 1156.69 1202.72 1156.6 Q1204.39 1156.51 1205.15 1156.51 Q1205.94 1156.51 1205.94 1157.24 Z" fill="#000000" fill-rule="evenodd" fill-opacity="1" /><path clip-path="url(#clip640)" d="M1246.31 1203.8 Q1246.31 1203.97 1246.13 1204.6 Q1245.94 1205.24 1245.49 1206.22 Q1245.06 1207.21 1244.45 1208.11 Q1243.85 1208.99 1242.87 1209.65 Q1241.91 1210.28 1240.8 1210.28 Q1239.32 1210.28 1238.34 1209.3 Q1237.36 1208.31 1237.36 1206.84 Q1237.36 1206.04 1237.91 1204.52 Q1240.51 1197.59 1240.51 1195.12 Q1240.51 1192.18 1238.24 1192.18 Q1236.95 1192.18 1235.78 1192.72 Q1234.61 1193.25 1233.85 1193.99 Q1233.09 1194.73 1232.5 1195.57 Q1231.91 1196.41 1231.64 1196.96 Q1231.39 1197.51 1231.33 1197.76 L1228.81 1207.88 Q1228.61 1208.74 1228.46 1209.15 Q1228.32 1209.56 1227.93 1209.91 Q1227.54 1210.28 1226.93 1210.28 Q1226.41 1210.28 1226.04 1209.97 Q1225.7 1209.67 1225.7 1209.13 Q1225.7 1209.05 1225.8 1208.62 Q1225.9 1208.19 1226.04 1207.6 Q1226.19 1207 1226.25 1206.65 Q1226.99 1203.87 1227.09 1203.48 L1228.26 1198.6 Q1228.89 1196.18 1228.89 1195.12 Q1228.89 1192.18 1226.62 1192.18 Q1225.49 1192.18 1224.42 1192.61 Q1223.38 1193.02 1222.66 1193.6 Q1221.95 1194.17 1221.29 1194.97 Q1220.65 1195.75 1220.33 1196.28 Q1220.02 1196.8 1219.77 1197.31 L1219.24 1199.4 Q1219.12 1199.97 1218.52 1202.21 L1217.6 1206 Q1216.94 1208.83 1216.8 1209.09 Q1216.6 1209.67 1216.15 1209.97 Q1215.69 1210.28 1215.24 1210.28 Q1214.73 1210.28 1214.38 1209.97 Q1214.03 1209.67 1214.03 1209.13 Q1214.03 1209.05 1214.1 1208.74 Q1214.16 1208.44 1214.26 1208.01 Q1214.36 1207.58 1214.4 1207.33 L1216.84 1197.64 Q1217.29 1195.87 1217.4 1195.32 Q1217.52 1194.75 1217.52 1194.11 Q1217.52 1192.18 1216.21 1192.18 Q1215.14 1192.18 1214.44 1193.46 Q1213.75 1194.73 1213.15 1197.19 Q1212.97 1197.86 1212.85 1198 Q1212.74 1198.15 1212.44 1198.15 Q1211.92 1198.13 1211.92 1197.72 Q1211.92 1197.62 1212.09 1196.96 Q1212.25 1196.3 1212.56 1195.32 Q1212.89 1194.32 1213.23 1193.66 Q1213.44 1193.23 1213.62 1192.94 Q1213.81 1192.66 1214.18 1192.2 Q1214.55 1191.75 1215.1 1191.51 Q1215.65 1191.26 1216.33 1191.26 Q1217.83 1191.26 1218.93 1192.23 Q1220.06 1193.19 1220.2 1194.91 Q1222.93 1191.26 1226.74 1191.26 Q1228.89 1191.26 1230.18 1192.35 Q1231.39 1193.39 1231.54 1195.32 Q1234.36 1191.26 1238.38 1191.26 Q1240.7 1191.26 1241.95 1192.47 Q1243.2 1193.66 1243.2 1195.75 Q1243.2 1196.84 1242.64 1198.91 Q1242.09 1200.96 1241.72 1201.98 Q1241.35 1203.01 1240.64 1204.97 Q1239.88 1206.86 1239.88 1207.97 Q1239.88 1208.68 1240.12 1209.01 Q1240.37 1209.34 1240.9 1209.34 Q1241.72 1209.34 1242.44 1208.87 Q1243.16 1208.38 1243.67 1207.58 Q1244.2 1206.76 1244.55 1205.94 Q1244.9 1205.1 1245.17 1204.15 Q1245.33 1203.64 1245.41 1203.52 Q1245.51 1203.39 1245.8 1203.39 Q1246.31 1203.39 1246.31 1203.8 Z" fill="#000000" fill-rule="evenodd" fill-opacity="1" /><path clip-path="url(#clip640)" d="M1268.15 1203.8 Q1267.6 1206.45 1266.88 1207.97 Q1265.73 1210.28 1263.78 1210.28 Q1262.31 1210.28 1261.26 1209.38 Q1260.22 1208.48 1259.97 1207.12 Q1257.29 1210.28 1254.5 1210.28 Q1252.04 1210.28 1250.48 1208.42 Q1248.93 1206.53 1248.93 1203.56 Q1248.93 1200.57 1250.4 1197.7 Q1251.9 1194.83 1254.25 1193.05 Q1256.61 1191.26 1259.03 1191.26 Q1261.59 1191.26 1262.9 1193.95 Q1263.01 1193.21 1263.48 1192.66 Q1263.95 1192.1 1264.67 1192.1 Q1265.22 1192.1 1265.55 1192.41 Q1265.87 1192.7 1265.87 1193.23 Q1265.87 1193.5 1265.59 1194.66 L1264.07 1200.53 L1263.15 1204.32 Q1262.8 1205.71 1262.7 1206.22 Q1262.62 1206.74 1262.62 1207.41 Q1262.62 1209.34 1263.87 1209.34 Q1264.48 1209.34 1264.97 1208.95 Q1265.46 1208.56 1265.85 1207.74 Q1266.24 1206.92 1266.49 1206.16 Q1266.74 1205.38 1267.06 1204.15 Q1267.17 1203.66 1267.25 1203.54 Q1267.35 1203.39 1267.64 1203.39 Q1268.15 1203.39 1268.15 1203.8 M1262.39 1195.87 Q1262.39 1195.69 1262.25 1195.18 Q1262.1 1194.66 1261.78 1193.95 Q1261.45 1193.23 1260.73 1192.72 Q1260.03 1192.18 1259.09 1192.18 Q1257.82 1192.18 1256.49 1193.27 Q1255.18 1194.36 1254.21 1196.2 Q1253.48 1197.68 1252.68 1200.77 Q1251.9 1203.87 1251.9 1205.4 Q1251.9 1206.35 1252.1 1207.19 Q1252.33 1208.01 1252.96 1208.68 Q1253.6 1209.34 1254.58 1209.34 Q1256.98 1209.34 1259.34 1206.37 Q1259.79 1205.85 1259.89 1205.65 Q1260.01 1205.42 1260.18 1204.81 L1262.27 1196.59 Q1262.39 1195.98 1262.39 1195.87 Z" fill="#000000" fill-rule="evenodd" fill-opacity="1" /><path clip-path="url(#clip640)" d="M1290.81 1194.03 Q1290.81 1195.18 1290.09 1195.83 Q1289.37 1196.47 1288.55 1196.47 Q1287.77 1196.47 1287.36 1196.02 Q1286.95 1195.57 1286.95 1194.99 Q1286.95 1194.21 1287.53 1193.54 Q1288.1 1192.86 1288.96 1192.72 Q1288.12 1192.18 1286.87 1192.18 Q1286.05 1192.18 1285.33 1192.61 Q1284.64 1193.05 1284.21 1193.6 Q1283.8 1194.15 1283.43 1194.95 Q1283.08 1195.73 1282.94 1196.2 Q1282.81 1196.65 1282.71 1197.14 L1281.28 1202.88 Q1280.58 1205.61 1280.58 1206.57 Q1280.58 1207.76 1281.15 1208.56 Q1281.73 1209.34 1282.88 1209.34 Q1283.33 1209.34 1283.84 1209.22 Q1284.35 1209.07 1285.01 1208.7 Q1285.68 1208.31 1286.28 1207.74 Q1286.89 1207.15 1287.49 1206.14 Q1288.08 1205.14 1288.47 1203.85 Q1288.59 1203.39 1289 1203.39 Q1289.52 1203.39 1289.52 1203.8 Q1289.52 1204.15 1289.23 1204.89 Q1288.96 1205.61 1288.37 1206.55 Q1287.79 1207.47 1287.04 1208.31 Q1286.28 1209.13 1285.15 1209.71 Q1284.02 1210.28 1282.79 1210.28 Q1281.03 1210.28 1279.86 1209.34 Q1278.69 1208.4 1278.26 1207.08 Q1278.16 1207.27 1278.02 1207.51 Q1277.87 1207.76 1277.44 1208.31 Q1277.03 1208.85 1276.56 1209.26 Q1276.09 1209.65 1275.35 1209.95 Q1274.64 1210.28 1273.86 1210.28 Q1272.87 1210.28 1271.99 1209.99 Q1271.13 1209.71 1270.52 1209.05 Q1269.9 1208.4 1269.9 1207.49 Q1269.9 1206.49 1270.58 1205.79 Q1271.28 1205.08 1272.22 1205.08 Q1272.81 1205.08 1273.28 1205.42 Q1273.78 1205.77 1273.78 1206.53 Q1273.78 1207.37 1273.2 1208.01 Q1272.63 1208.64 1271.81 1208.81 Q1272.65 1209.34 1273.9 1209.34 Q1275.25 1209.34 1276.32 1208.15 Q1277.38 1206.96 1277.9 1204.97 Q1279.17 1200.2 1279.66 1198.07 Q1280.15 1195.91 1280.15 1194.99 Q1280.15 1194.13 1279.92 1193.54 Q1279.7 1192.94 1279.31 1192.68 Q1278.94 1192.39 1278.59 1192.29 Q1278.26 1192.18 1277.9 1192.18 Q1277.28 1192.18 1276.58 1192.43 Q1275.91 1192.68 1275.09 1193.25 Q1274.29 1193.8 1273.53 1194.95 Q1272.77 1196.1 1272.26 1197.68 Q1272.16 1198.15 1271.71 1198.15 Q1271.21 1198.13 1271.21 1197.72 Q1271.21 1197.37 1271.48 1196.65 Q1271.77 1195.91 1272.34 1194.99 Q1272.94 1194.07 1273.69 1193.25 Q1274.47 1192.41 1275.6 1191.84 Q1276.75 1191.26 1277.98 1191.26 Q1278.53 1191.26 1279.06 1191.39 Q1279.62 1191.49 1280.27 1191.79 Q1280.95 1192.1 1281.54 1192.78 Q1282.14 1193.46 1282.51 1194.44 Q1282.75 1193.97 1283.08 1193.52 Q1283.43 1193.07 1283.96 1192.51 Q1284.51 1191.94 1285.27 1191.61 Q1286.05 1191.26 1286.91 1191.26 Q1287.75 1191.26 1288.57 1191.49 Q1289.39 1191.69 1290.09 1192.37 Q1290.81 1193.02 1290.81 1194.03 Z" fill="#000000" fill-rule="evenodd" fill-opacity="1" /><path clip-path="url(#clip640)" d="M497.708 941.69 Q497.649 942.773 496.917 942.832 Q495.805 942.89 495.131 943.037 Q494.458 943.154 493.404 943.593 Q492.35 944.032 491.325 945.086 Q490.301 946.14 489.247 947.809 L467.669 982.152 Q467.288 982.796 466.966 983.001 Q466.673 983.236 466 983.236 Q465.385 983.236 465.151 982.972 Q464.916 982.738 464.799 981.859 L460.056 944.852 Q459.968 944.179 459.881 943.886 Q459.793 943.593 459.441 943.3 Q459.119 943.007 458.417 942.92 Q457.714 942.832 456.455 942.832 Q455.87 942.832 455.606 942.803 Q455.372 942.773 455.167 942.627 Q454.962 942.451 454.962 942.1 Q454.962 941.573 455.167 941.309 Q455.401 941.017 455.577 940.987 Q455.782 940.958 456.104 940.958 Q456.601 940.958 457.685 941.017 Q458.768 941.075 459.324 941.075 Q459.851 941.075 460.964 941.104 Q462.076 941.134 462.633 941.134 Q463.862 941.134 466.351 941.046 Q468.869 940.958 470.069 940.958 Q470.889 940.958 470.889 941.631 Q470.889 942.451 470.538 942.656 Q470.186 942.832 469.396 942.832 Q467.405 942.832 466.322 943.33 Q465.268 943.827 465.268 944.618 L469.337 976.355 L487.753 947.077 Q488.661 945.701 488.661 944.793 Q488.661 943.037 485.88 942.832 Q484.943 942.832 484.943 942.1 Q484.943 941.573 485.177 941.309 Q485.411 941.017 485.587 940.987 Q485.792 940.958 486.084 940.958 Q487.051 940.958 489.012 941.046 Q491.003 941.134 491.999 941.134 Q492.818 941.134 494.487 941.046 Q496.156 940.958 496.917 940.958 Q497.708 940.958 497.708 941.69 Z" fill="#000000" fill-rule="evenodd" fill-opacity="1" /><path clip-path="url(#clip640)" d="M503.69 986.423 Q503.69 980.254 505.248 976.893 Q507.42 971.892 512.544 971.892 Q513.63 971.892 514.757 972.199 Q515.905 972.486 517.339 973.614 Q518.795 974.741 519.676 976.585 Q521.356 980.151 521.356 986.423 Q521.356 992.551 519.799 995.891 Q517.524 1000.77 512.503 1000.77 Q510.617 1000.77 508.691 999.806 Q506.785 998.843 505.576 996.527 Q503.69 993.063 503.69 986.423 M507.174 985.91 Q507.174 992.243 507.625 994.764 Q508.137 997.49 509.531 998.679 Q510.945 999.847 512.503 999.847 Q514.183 999.847 515.577 998.597 Q516.991 997.326 517.421 994.6 Q517.893 991.915 517.872 985.91 Q517.872 980.069 517.462 977.733 Q516.909 975.007 515.433 973.921 Q513.978 972.814 512.503 972.814 Q511.949 972.814 511.355 972.978 Q510.781 973.142 509.941 973.614 Q509.101 974.085 508.445 975.253 Q507.809 976.421 507.502 978.184 Q507.174 980.459 507.174 985.91 Z" fill="#000000" fill-rule="evenodd" fill-opacity="1" /><path clip-path="url(#clip640)" d="M713.057 1154.02 Q713.291 1154.29 713.291 1154.55 Q713.291 1154.81 712.705 1155.57 Q712.149 1156.34 710.949 1157.36 Q709.748 1158.39 708.196 1159.35 Q706.645 1160.32 704.361 1160.96 Q702.077 1161.63 699.677 1161.63 Q695.197 1161.63 692.562 1158.68 Q689.956 1155.72 689.956 1151.48 Q689.956 1147.35 692.269 1143.39 Q694.582 1139.41 698.33 1136.95 Q702.077 1134.46 706.03 1134.46 Q709.163 1134.46 711.124 1135.93 Q713.086 1137.39 713.086 1139.62 Q713.086 1141.35 712.09 1142.4 Q711.095 1143.45 709.748 1143.45 Q708.811 1143.45 708.167 1142.93 Q707.523 1142.37 707.523 1141.35 Q707.523 1140.03 708.606 1139 Q709.016 1138.59 709.485 1138.42 Q709.982 1138.21 710.275 1138.21 Q710.568 1138.18 711.241 1138.18 Q710.627 1137.04 709.163 1136.43 Q707.728 1135.78 706.088 1135.78 Q703.658 1135.78 701.345 1137.48 Q699.032 1139.15 697.627 1141.78 Q696.222 1144.36 695.314 1148.02 Q694.406 1151.65 694.406 1153.76 Q694.406 1156.66 695.753 1158.47 Q697.1 1160.29 699.794 1160.29 Q700.321 1160.29 700.877 1160.26 Q701.463 1160.23 702.926 1159.91 Q704.42 1159.59 705.737 1159.03 Q707.055 1158.47 708.723 1157.27 Q710.422 1156.04 711.768 1154.37 Q712.237 1153.76 712.559 1153.76 Q712.822 1153.76 713.057 1154.02 Z" fill="#000000" fill-rule="evenodd" fill-opacity="1" /></svg>
